<?xml version="1.0" encoding="UTF-8" standalone="no"?>
<svg width="24px" height="24px" viewBox="0 0 24 24" version="1.1" xmlns="http://www.w3.org/2000/svg" xmlns:xlink="http://www.w3.org/1999/xlink">
    <!-- Generator: Sketch 46.2 (44496) - http://www.bohemiancoding.com/sketch -->
    <title>Combined Shape Copy</title>
    <desc>Created with Sketch.</desc>
    <defs>
        <linearGradient x1="89.1581564%" y1="19.8325946%" x2="25.837943%" y2="87.2862935%" id="linearGradient-1">
            <stop stop-color="#FFCD16" offset="0%"></stop>
            <stop stop-color="#F78B00" offset="100%"></stop>
            <stop stop-color="#F76B1C" offset="100%"></stop>
        </linearGradient>
    </defs>
    <g id="Dawa" stroke="none" stroke-width="1" fill="none" fill-rule="evenodd">
        <g id="BioPub-header-new-logo-colour" transform="translate(-18.000000, -21.000000)" fill-rule="nonzero" fill="url(#linearGradient-1)">
            <path d="M27.0404555,44.194073 C25.0068454,43.8649719 23.2161524,42.998339 21.6683766,41.5941742 C20.1206007,40.1900094 19.0447077,38.4854344 18.4406976,36.4804492 C19.8883522,36.8011118 20.6901428,36.9749447 20.8460693,37.0019479 C21.1283784,37.8221691 21.5378907,38.6347957 22.0746062,39.4398277 C22.6113217,40.2448596 23.1242379,40.9039057 23.6133547,41.4169659 C24.1024716,41.9300261 24.6359044,42.4219901 25.2136532,42.8928578 C25.791402,43.3637256 26.1853216,43.6700428 26.3954121,43.8118094 C26.6055026,43.9535761 26.7704564,44.0615887 26.8902736,44.1358475 C26.9362309,44.1645383 26.9862916,44.1839468 27.0404555,44.194073 Z M18.2338898,35.6323809 L20.5432436,36.0273022 C20.3134572,35.3117183 20.1255247,34.5235633 19.9794461,33.6628373 C19.8333676,32.8021113 19.746377,32.1169059 19.7184744,31.6072211 L19.6643104,30.8578831 C18.8945258,31.6291611 18.3397557,32.6839724 18,34.022317 C18.0459573,34.6349514 18.1239206,35.1716393 18.2338898,35.6323809 Z M19.7455564,27.030184 C19.3516367,27.6326922 18.9987504,28.3297115 18.6868974,29.1212419 C19.090665,28.6875035 19.4296,28.3668408 19.7037024,28.159254 L19.7455564,27.030184 Z M39.4883158,33.161591 C39.4883158,35.3083429 38.9433937,37.2761988 37.8535493,39.0651587 C36.763705,40.8541186 35.3258984,42.2152471 33.5401294,43.1485441 C32.4404371,43.5063361 31.2356996,43.5772194 29.9259168,43.3611941 L29.3916633,43.1915804 C29.0322116,43.0869431 28.5668941,42.8818878 27.9957106,42.5764145 C27.4245271,42.2709411 26.8270824,41.8988037 26.2033763,41.4600022 C25.5796702,41.0212007 24.9518608,40.4229118 24.3199481,39.6651354 C23.6880353,38.9073589 23.1849671,38.0761677 22.8107435,37.1715615 C24.4766952,37.2103786 25.9284532,37.135276 27.1660174,36.9462538 C29.5377418,36.598588 31.6763972,35.967389 33.5819834,35.0526566 C34.0661762,34.8265051 34.2442607,34.256907 34.1162369,33.3438624 C34.0801276,33.1092723 34.0021643,32.9472533 33.8823471,32.8578053 C33.7625299,32.7683573 33.6230167,32.7447296 33.4638075,32.786922 C33.3045983,32.8291145 33.1240518,32.9253132 32.922168,33.0755184 L32.4125345,33.4147457 C32.0727788,33.6510234 31.5713519,33.9286497 30.9082539,34.2476247 C30.2451558,34.5665996 29.5008119,34.8821991 28.675222,35.1944233 C27.8496321,35.5066474 26.867295,35.7589582 25.7282107,35.9513558 C24.5891265,36.1437534 23.4557869,36.2121052 22.3281919,36.1564111 C22.0163389,35.6079093 21.7323885,34.7623726 21.4763407,33.619801 C21.220293,32.4772294 21.0578011,31.6392873 20.9888652,31.1059748 C20.9199293,30.5726622 20.8674066,30.1363922 20.8312973,29.7971649 C21.4714167,29.2334738 22.0713235,28.7702007 22.6310176,28.4073456 C23.1907118,28.0444905 23.8431412,27.7077948 24.5883058,27.3972583 C25.3334704,27.0867219 26.1713703,26.8816666 27.1020054,26.7820924 C28.0326406,26.6825182 29.0748863,26.6850498 30.2287425,26.789687 C30.2599278,26.6968636 30.2648518,26.5626916 30.2435145,26.387171 C30.2221772,26.2116505 30.1918125,26.0369737 30.1524206,25.8631408 C30.1130286,25.6893079 30.0014181,25.5340397 29.8175889,25.3973361 C29.6337597,25.2606326 29.3908426,25.1880616 29.0888376,25.1796231 L28.5398121,25.1365868 C28.1655884,25.0977697 27.6682649,25.0927067 27.0478415,25.1213975 C26.4274181,25.1500884 25.7725267,25.2142209 25.0831673,25.3137951 C24.393808,25.4133693 23.6683393,25.615893 22.9067614,25.9213664 C22.1451834,26.2268397 21.4902921,26.6200734 20.9420872,27.1010673 C21.0783178,26.1390794 21.2843049,25.3855223 21.5600487,24.8403958 C22.5300757,23.9357896 23.6289474,23.2362388 24.8566636,22.7417433 C26.0843797,22.2472478 27.3711839,22 28.7170759,22 C30.1762199,22 31.5688899,22.2945033 32.895086,22.8835099 C34.2212821,23.4725165 35.3677523,24.2657346 36.3344968,25.2631642 C37.3012412,26.2605937 38.0685638,27.4470454 38.6364646,28.8225193 C39.2043654,30.1979932 39.4883158,31.6443504 39.4883158,33.161591 Z M39.5,26 C38.1192881,26 37,24.8807119 37,23.5 C37,22.1192881 38.1192881,21 39.5,21 C40.8807119,21 42,22.1192881 42,23.5 C42,24.8807119 40.8807119,26 39.5,26 Z" id="Combined-Shape-Copy"></path>
        </g>
    </g>
</svg>