<?xml version="1.0" encoding="UTF-8"?>
<svg width="18px" height="18px" viewBox="0 0 18 18" version="1.1" xmlns="http://www.w3.org/2000/svg" xmlns:xlink="http://www.w3.org/1999/xlink">
    <!-- Generator: Sketch 41.2 (35397) - http://www.bohemiancoding.com/sketch -->
    <title>Combined Shape</title>
    <desc>Created with Sketch.</desc>
    <defs></defs>
    <g id="Page-1" stroke="none" stroke-width="1" fill="currentColor" fill-rule="evenodd">
        <path d="M16.9632278,17.9518378 C17.5090656,17.9518378 17.9516988,17.5092046 17.9516988,16.9632278 L17.9516988,1.02940541 C17.9516988,0.483359073 17.5091351,0.0408648649 16.9632278,0.0408648649 L1.02940541,0.0408648649 C0.483359073,0.0408648649 0.0408648649,0.483359073 0.0408648649,1.02940541 L0.0408648649,16.9632278 C0.0408648649,17.5091351 0.483289575,17.9518378 1.02940541,17.9518378 L16.9632278,17.9518378 Z M12.3990811,17.9518378 L12.3990811,11.015722 L14.7271969,11.015722 L15.0757992,8.31259459 L12.3990811,8.31259459 L12.3990811,6.58681853 C12.3990811,5.80420077 12.6164015,5.27087259 13.7386564,5.27087259 L15.1700386,5.2702471 L15.1700386,2.85254826 C14.9224865,2.81960618 14.0728031,2.74600772 13.0842625,2.74600772 C11.0205174,2.74600772 9.60762162,4.00572973 9.60762162,6.31911197 L9.60762162,8.31259459 L7.27352896,8.31259459 L7.27352896,11.015722 L9.60762162,11.015722 L9.60762162,17.9518378 L12.3990811,17.9518378 Z" id="Combined-Shape"></path>
    </g>
</svg>
