<?xml version="1.0" encoding="UTF-8"?>
<svg width="22px" height="14px" viewBox="0 0 22 14" version="1.1" xmlns="http://www.w3.org/2000/svg" xmlns:xlink="http://www.w3.org/1999/xlink">
    <!-- Generator: Sketch 41.2 (35397) - http://www.bohemiancoding.com/sketch -->
    <title>logo_google_plus_32px_clr copy 6</title>
    <desc>Created with Sketch.</desc>
    <defs></defs>
    <g id="Page-1" stroke="none" stroke-width="1" fill="currentColor" fill-rule="evenodd">
        <g id="logo_google_plus_32px_clr-copy-6">
            <path d="M7,6 L7,8.4 L10.97,8.4 C10.81,9.43 9.77,11.42 7,11.42 C4.61,11.42 2.66,9.44 2.66,7 C2.66,4.56 4.61,2.58 7,2.58 C8.36,2.58 9.27,3.16 9.79,3.66 L11.69,1.83 C10.47,0.69 8.89,0 7,0 C3.13,0 0,3.13 0,7 C0,10.87 3.13,14 7,14 C11.04,14 13.72,11.16 13.72,7.16 C13.72,6.7 13.67,6.35 13.61,6 L7,6 L7,6 Z" id="Shape"></path>
            <polyline id="Shape" points="22 6 20 6 20 4 18 4 18 6 16 6 16 8 18 8 18 10 20 10 20 8 22 8"></polyline>
        </g>
    </g>
</svg>
