<?xml version="1.0" encoding="UTF-8" standalone="no"?>
<svg
   xmlns:sketch="http://www.bohemiancoding.com/sketch/ns"
   xmlns:dc="http://purl.org/dc/elements/1.1/"
   xmlns:cc="http://creativecommons.org/ns#"
   xmlns:rdf="http://www.w3.org/1999/02/22-rdf-syntax-ns#"
   xmlns:svg="http://www.w3.org/2000/svg"
   xmlns="http://www.w3.org/2000/svg"
   xmlns:sodipodi="http://sodipodi.sourceforge.net/DTD/sodipodi-0.dtd"
   xmlns:inkscape="http://www.inkscape.org/namespaces/inkscape"
   width="24px"
   height="28px"
   viewBox="0 0 24 28"
   version="1.1"
   id="svg2"
   inkscape:version="0.91 r13725"
   sodipodi:docname="hypothesis.svg">
  <metadata
     id="metadata14">
    <rdf:RDF>
      <cc:Work
         rdf:about="">
        <dc:format>image/svg+xml</dc:format>
        <dc:type
           rdf:resource="http://purl.org/dc/dcmitype/StillImage" />
      </cc:Work>
    </rdf:RDF>
  </metadata>
  <sodipodi:namedview
     pagecolor="#ffffff"
     bordercolor="#666666"
     borderopacity="1"
     objecttolerance="10"
     gridtolerance="10"
     guidetolerance="10"
     inkscape:pageopacity="0"
     inkscape:pageshadow="2"
     inkscape:window-width="1920"
     inkscape:window-height="1136"
     id="namedview12"
     showgrid="false"
     inkscape:zoom="8.4285714"
     inkscape:cx="12"
     inkscape:cy="14"
     inkscape:window-x="0"
     inkscape:window-y="27"
     inkscape:window-maximized="1"
     inkscape:current-layer="svg2" />
  <!-- Generator: Sketch 3.5.2 (25235) - http://www.bohemiancoding.com/sketch -->
  <title
     id="title4">Rectangle 2 Copy 18</title>
  <desc
     id="desc6">Created with Sketch.</desc>
  <defs
     id="defs8" />
  <g
     id="Page-1"
     stroke="none"
     stroke-width="1"
     fill="none"
     fill-rule="evenodd"
     sketch:type="MSPage"
     style="fill:#3f3f3f;fill-opacity:1">
    <path
       d="M0,2.00494659 C0,0.897645164 0.897026226,0 2.00494659,0 L21.9950534,0 C23.1023548,0 24,0.897026226 24,2.00494659 L24,21.9950534 C24,23.1023548 23.1029738,24 21.9950534,24 L2.00494659,24 C0.897645164,24 0,23.1029738 0,21.9950534 L0,2.00494659 Z M9,24 L12,28 L15,24 L9,24 Z M7.00811294,4 L4,4 L4,20 L7.00811294,20 L7.00811294,15.0028975 C7.00811294,12.004636 8.16824717,12.0097227 9,12 C10,12.0072451 11.0189302,12.0606714 11.0189302,14.003477 L11.0189302,20 L14.0270431,20 L14.0270431,13.1087862 C14.0270433,10 12,9.00309038 10,9.00309064 C8.01081726,9.00309091 8,9.00309086 7.00811294,11.0019317 L7.00811294,4 Z M19,19.9869002 C20.1045695,19.9869002 21,19.0944022 21,17.9934501 C21,16.892498 20.1045695,16 19,16 C17.8954305,16 17,16.892498 17,17.9934501 C17,19.0944022 17.8954305,19.9869002 19,19.9869002 Z"
       id="Rectangle-2-Copy-18"
       fill="#A6A6A6"
       sketch:type="MSShapeGroup"
       style="fill:#3f3f3f;fill-opacity:1" />
  </g>
</svg>
