<?xml version="1.0" encoding="UTF-8"?>
<svg width="12px" height="12px" viewBox="0 0 12 12" version="1.1" xmlns="http://www.w3.org/2000/svg" xmlns:xlink="http://www.w3.org/1999/xlink">
    <!-- Generator: Sketch 41.1 (35376) - http://www.bohemiancoding.com/sketch -->
    <title>Artboard Copy</title>
    <desc>Created with Sketch.</desc>
    <defs></defs>
    <g id="Page-1" stroke="none" stroke-width="1" fill="none" fill-rule="evenodd">
        <g id="Artboard-Copy" fill="currentColor">
            <g id="Group">
                <path d="M6.89576676,1.943068 C7.38203449,1.45680028 8.17483027,1.45731585 8.66058242,1.943068 L10.0777473,3.36023286 C10.564015,3.84650058 10.5634994,4.63929636 10.0777473,5.12504852 L7.95347564,7.24932015 C7.46720792,7.73558788 6.67441213,7.73507231 6.18865998,7.24932015 L5.47860191,6.53926208 C5.18570869,6.24636886 4.71083496,6.24636886 4.41794174,6.53926208 C4.12504852,6.8321553 4.12504852,7.30702903 4.41794174,7.59992225 L5.12799981,8.30998032 C6.1992298,9.38121032 7.94177261,9.38234353 9.01413581,8.30998032 L11.1384074,6.18570869 C12.2096374,5.1144787 12.2107707,3.37193589 11.1384074,2.29957268 L9.7212426,0.882407831 C8.6500126,-0.188822161 6.9074698,-0.189955377 5.83510659,0.882407831 C5.54221337,1.17530105 5.54221337,1.65017478 5.83510659,1.943068 C6.12799981,2.23596122 6.60287354,2.23596122 6.89576676,1.943068 Z" id="Rectangle"></path>
                <path d="M5.12504852,10.0777473 C4.63878079,10.564015 3.84598501,10.5634994 3.36023286,10.0777473 L1.943068,8.66058242 C1.45680028,8.1743147 1.45731585,7.38151892 1.943068,6.89576676 L4.06733964,4.77149513 C4.55360736,4.2852274 5.34640315,4.28574297 5.8321553,4.77149513 L6.54221337,5.4815532 C6.83510659,5.77444642 7.30998032,5.77444642 7.60287354,5.4815532 C7.89576676,5.18865998 7.89576676,4.71378625 7.60287354,4.42089303 L6.89281547,3.71083496 C5.82158548,2.63960496 4.07904267,2.63847175 3.00667947,3.71083496 L0.882407831,5.83510659 C-0.188822161,6.90633658 -0.189955377,8.64887939 0.882407831,9.7212426 L2.29957268,11.1384074 C3.37080268,12.2096374 5.11334548,12.2107707 6.18570869,11.1384074 C6.47860191,10.8455142 6.47860191,10.3706405 6.18570869,10.0777473 C5.89281547,9.78485406 5.41794174,9.78485406 5.12504852,10.0777473 Z" id="Rectangle-Copy"></path>
            </g>
        </g>
    </g>
</svg>
