<?xml version="1.0" encoding="UTF-8" standalone="no"?>
<svg width="16px" height="16px" viewBox="0 0 16 16" version="1.1" xmlns="http://www.w3.org/2000/svg" xmlns:xlink="http://www.w3.org/1999/xlink" xmlns:sketch="http://www.bohemiancoding.com/sketch/ns">
    <!-- Generator: Sketch 3.3.3 (12072) - http://www.bohemiancoding.com/sketch -->
    <title>Artboard 1 Copy 2</title>
    <desc>Created with Sketch.</desc>
    <defs></defs>
    <g id="Page-1" stroke="none" stroke-width="1" fill="none" fill-rule="evenodd" sketch:type="MSPage">
        <g id="Artboard-1-Copy-2" sketch:type="MSArtboardGroup" fill="#000000">
            <g id="Shape-+-Shape-Copy-28" sketch:type="MSLayerGroup">
                <path d="M6,10 L6,10 C8.209139,10 10,8.209139 10,6 C10,3.790861 8.209139,2 6,2 C3.790861,2 2,3.790861 2,6 C2,8.209139 3.790861,10 6,10 L6,10 Z M6,12 L6,12 C2.6862915,12 0,9.3137085 0,6 C0,2.6862915 2.6862915,0 6,0 C9.3137085,0 12,2.6862915 12,6 C12,9.3137085 9.3137085,12 6,12 L6,12 Z" id="Shape" sketch:type="MSShapeGroup"></path>
            </g>
            <path d="M9.29289322,10.7071068 L14.2426407,15.6568542 L15.6568542,14.2426407 L10.7071068,9.29289322 L9.29289322,10.7071068 L9.29289322,10.7071068 Z" id="Shape" sketch:type="MSShapeGroup"></path>
        </g>
    </g>
</svg>