<?xml version="1.0" encoding="UTF-8" standalone="no"?>
<svg width="16px" height="16px" viewBox="0 0 16 16" version="1.1" xmlns="http://www.w3.org/2000/svg" xmlns:xlink="http://www.w3.org/1999/xlink">
    <!-- Generator: Sketch 39.1 (31720) - http://www.bohemiancoding.com/sketch -->
    <title>Combined Shape</title>
    <desc>Created with Sketch.</desc>
    <defs></defs>
    <g id="Page-1" stroke="none" stroke-width="1" fill="none" fill-rule="evenodd">
        <path d="M6.36083457,2.22664681 L6.5,0 L9.5,0 L9.63916543,2.22664681 C10.0910458,2.35469372 10.5212322,2.53436294 10.9229486,2.75887866 L12.5961941,1.28248558 L14.7175144,3.40380592 L13.2411213,5.07705142 C13.4656371,5.47876785 13.6453063,5.90895417 13.7733532,6.36083457 L16,6.5 L16,9.5 L13.7733532,9.63916543 C13.6453063,10.0910458 13.4656371,10.5212322 13.2411213,10.9229486 L14.7175144,12.5961941 L12.5961941,14.7175144 L10.9229486,13.2411213 C10.5212322,13.4656371 10.0910458,13.6453063 9.63916543,13.7733532 L9.5,16 L6.5,16 L6.36083457,13.7733532 C5.90895417,13.6453063 5.47876785,13.4656371 5.07705142,13.2411213 L3.40380592,14.7175144 L1.28248558,12.5961941 L2.75887866,10.9229486 C2.53436294,10.5212322 2.35469372,10.0910458 2.22664681,9.63916543 L0,9.5 L0,6.5 L2.22664681,6.36083457 C2.35469372,5.90895417 2.53436294,5.47876785 2.75887866,5.07705142 L1.28248558,3.40380592 L3.40380592,1.28248558 L5.07705142,2.75887866 C5.47876785,2.53436294 5.90895417,2.35469372 6.36083457,2.22664681 Z M8,12 C10.209139,12 12,10.209139 12,8 C12,5.790861 10.209139,4 8,4 C5.790861,4 4,5.790861 4,8 C4,10.209139 5.790861,12 8,12 Z" id="Combined-Shape" fill="currentColor"></path>
    </g>
</svg>
