<?xml version="1.0" encoding="UTF-8" standalone="no"?>
<svg width="16px" height="16px" viewBox="0 0 16 16" version="1.1" xmlns="http://www.w3.org/2000/svg" xmlns:xlink="http://www.w3.org/1999/xlink">
    <!-- Generator: Sketch 3.6.1 (26313) - http://www.bohemiancoding.com/sketch -->
    <title>Share</title>
    <desc>Created with Sketch.</desc>
    <defs></defs>
    <g id="Page-1" stroke="none" stroke-width="1" fill="none" fill-rule="evenodd">
        <g id="Share" fill="#A6A6A6">
            <path d="M6.85953859,9.32824185 C6.95052184,9.06903287 7,8.79029456 7,8.5 C7,8.20970544 6.95052184,7.93096713 6.85953859,7.67175815 L9.95176241,5.46302685 C10.3775388,5.79929601 10.9153309,6 11.5,6 C12.8807119,6 14,4.88071187 14,3.5 C14,2.11928813 12.8807119,1 11.5,1 C10.1192881,1 9,2.11928813 9,3.5 C9,3.79029456 9.04947816,4.06903287 9.14046141,4.32824185 L6.04823759,6.53697315 C5.62246119,6.20070399 5.08466906,6 4.5,6 C3.11928813,6 2,7.11928813 2,8.5 C2,9.88071187 3.11928813,11 4.5,11 C5.08466906,11 5.62246119,10.799296 6.04823759,10.4630268 L9.14046141,12.6717581 C9.04947816,12.9309671 9,13.2097054 9,13.5 C9,14.8807119 10.1192881,16 11.5,16 C12.8807119,16 14,14.8807119 14,13.5 C14,12.1192881 12.8807119,11 11.5,11 C10.9153309,11 10.3775388,11.200704 9.95176241,11.5369732 L6.85953859,9.32824185 Z" id="Combined-Shape"></path>
        </g>
    </g>
</svg>