<?xml version="1.0" encoding="UTF-8"?>
<svg width="20px" height="17px" viewBox="0 0 20 17" version="1.1" xmlns="http://www.w3.org/2000/svg" xmlns:xlink="http://www.w3.org/1999/xlink">
    <!-- Generator: Sketch 41.2 (35397) - http://www.bohemiancoding.com/sketch -->
    <title>Fill 1 Copy 6</title>
    <desc>Created with Sketch.</desc>
    <defs></defs>
    <g id="Page-1" stroke="none" stroke-width="1" fill-rule="evenodd">
        <path d="M17.6432935,2.57017448 C18.4905081,2.06232854 19.1410805,1.25820257 19.447456,0.300084129 C18.6546692,0.770254947 17.7765097,1.11174513 16.8418742,1.29580453 C16.0933465,0.498335711 15.0269578,0 13.8468122,0 C11.5806723,0 9.74344343,1.83715571 9.74344343,4.10314935 C9.74344343,4.42474121 9.77980175,4.73792019 9.84973847,5.03822378 C6.43951864,4.86711292 3.41607228,3.23354914 1.39229672,0.751088189 C1.03910165,1.35710889 0.836753356,2.06196276 0.836753356,2.81392882 C0.836753356,4.23746296 1.56121292,5.49339771 2.66220418,6.22919639 C1.98953875,6.20790812 1.35688943,6.02333663 0.803613885,5.7160101 C0.803321263,5.7331285 0.803321263,5.75032006 0.803321263,5.76758477 C0.803321263,7.75566041 2.21771096,9.41409708 4.09480961,9.79099455 C3.75046637,9.88477998 3.38798054,9.93489155 3.01371667,9.93489155 C2.74933246,9.93489155 2.4922638,9.90921394 2.24177914,9.86129705 C2.76389041,11.4914957 4.27923479,12.6777863 6.07476499,12.7109258 C4.67047076,13.811405 2.90120341,14.4673909 0.978821464,14.4673909 C0.64764622,14.4673909 0.321006621,14.4480047 0,14.4101101 C1.81586744,15.5743078 3.97271297,16.2535572 6.28991551,16.2535572 C13.8372289,16.2535572 17.9643732,10.0011705 17.9643732,4.57895314 C17.9643732,4.40103881 17.9604228,4.2240755 17.952522,4.04813636 C18.7541607,3.46962215 19.4498701,2.74691832 20,1.92406452 C19.2641282,2.2504115 18.4733165,2.47097553 17.6432935,2.57017448 Z" id="Fill-1-Copy-6" fill="currentColor"></path>
    </g>
</svg>
