<?xml version="1.0" encoding="utf-8"?>
<!-- Generated by IcoMoon.io -->
<!DOCTYPE svg PUBLIC "-//W3C//DTD SVG 1.1//EN" "http://www.w3.org/Graphics/SVG/1.1/DTD/svg11.dtd">
<svg version="1.1" xmlns="http://www.w3.org/2000/svg" xmlns:xlink="http://www.w3.org/1999/xlink" width="32" height="32" viewBox="0 0 32 32">
<g>
</g>
	<path d="M19.587 16.001l6.096 6.096c0.396 0.396 0.396 1.039 0 1.435l-2.151 2.151c-0.396 0.396-1.038 0.396-1.435 0l-6.097-6.096-6.097 6.096c-0.396 0.396-1.038 0.396-1.434 0l-2.152-2.151c-0.396-0.396-0.396-1.038 0-1.435l6.097-6.096-6.097-6.097c-0.396-0.396-0.396-1.039 0-1.435l2.153-2.151c0.396-0.396 1.038-0.396 1.434 0l6.096 6.097 6.097-6.097c0.396-0.396 1.038-0.396 1.435 0l2.151 2.152c0.396 0.396 0.396 1.038 0 1.435l-6.096 6.096z" fill="#858585" />
</svg>
