<?xml version="1.0" standalone="no"?>
<!DOCTYPE svg PUBLIC "-//W3C//DTD SVG 1.1//EN" "http://www.w3.org/Graphics/SVG/1.1/DTD/svg11.dtd" >
<svg xmlns="http://www.w3.org/2000/svg">
<metadata>
This is a custom SVG font generated by IcoMoon.
<iconset grid="16"></iconset>
</metadata>
<defs>
<font id="icomoon" horiz-adv-x="512" >
<font-face units-per-em="512" ascent="480" descent="-32" />
<missing-glyph horiz-adv-x="512" />
<glyph unicode="&#x22;" d="M 466.895,174.875c-26.863,46.527-10.708,106.152, 36.076,133.244l-50.313,87.146c-14.375-8.427-31.088-13.259-48.923-13.259
	c-53.768,0.00-97.354,43.873-97.354,97.995L 205.752,480.001 c 0.133-16.705-4.037-33.641-12.979-49.126
	c-26.862-46.528-86.578-62.351-133.431-35.379L 9.03,308.35c 14.485-8.236, 27.025-20.294, 35.943-35.739
	c 26.819-46.454, 10.756-105.96-35.854-133.112l 50.313-87.146c 14.325,8.348, 30.958,13.127, 48.70,13.127
	c 53.598,0.00, 97.072-43.596, 97.35-97.479l 100.627,0.00 c-0.043,16.537, 4.136,33.285, 12.983,48.609
	c 26.818,46.453, 86.388,62.297, 133.207,35.506l 50.313,87.145C 488.222,147.494, 475.766,159.51, 466.895,174.875z M 256.00,120.334
	c-57.254,0.00-103.668,46.412-103.668,103.667c0.00,57.254, 46.413,103.667, 103.668,103.667c 57.254,0.00, 103.666-46.413, 103.666-103.667
	C 359.665,166.746, 313.254,120.334, 256.00,120.334z" data-tags="cog, preferences, settings, gear, generate, control, options" />
<glyph unicode="&#x23;" d="M 37.50,379.50q0.00,12.75 4.25,25.625t 13.00,23.875t 22.00,19.375t 31.75,12.125l 8.25-17.50q-19.50-6.25 -31.00-18.50t-9.00-31.75q 5.75-4.50 16.00-9.375t 17.75-7.375q 2.00-8.25 0.00-16.00t-6.625-13.625t-10.75-9.625t-11.125-4.25q-18.00,1.50 -31.25,13.25t-13.25,33.75zM 130.75,379.50q0.00,12.75 4.25,25.625t 13.00,23.875t 22.00,19.375t 31.75,12.125l 8.25-17.50q-19.50-6.25 -31.00-18.50 t-9.00-31.75q 5.75-4.50 16.00-9.375t 17.75-7.375q 2.00-8.25 0.00-16.00t-6.625-13.625t-10.75-9.625t-11.125-4.25q-18.00,1.50 -31.25,13.25t-13.25,33.75z" horiz-adv-x="242.5" />
<glyph unicode="&#x24;" d="M 29.25,13.75q 20.00,6.25 33.00,21.00t 10.50,34.25q-5.75,4.50 -16.00,9.125t-17.75,7.625q-2.50,8.25 -0.25,16.00t 6.875,13.625t 10.50,9.625t 11.375,3.75q 17.00-1.50 30.875-13.00t 13.875-34.00q0.00-12.25 -5.125-25.625t-14.875-25.125t-23.625-21.00t-30.625-13.75zM 122.50,13.75q 20.00,6.25 33.00,21.00t 10.50,34.25q-5.75,4.50 -16.00,9.125t-17.75,7.625q-2.50,8.25 -0.25,16.00t 6.875,13.625 t 10.50,9.625t 11.375,3.75q 17.00-1.50 30.875-13.00t 13.875-34.00q0.00-12.25 -5.125-25.625t-14.875-25.125t-23.625-21.00t-30.625-13.75z" horiz-adv-x="242.5" />
<glyph unicode="&#x25;" d="M0.00,480.00,M0.00-34.286,m 509.211,244.827 c -2.825-2.825 -7.378-2.853 -10.176-0.027 -2.77,2.825 -15.991,16.018 -29.266,29.321 l -12.507,12.562 c -13.33,13.33 -26.551,26.496 -29.349,29.321 -2.825,2.77 -7.378,2.77 -10.176,0.00 -2.825-2.825 -16.018-16.018 -29.321-29.321 L 283.392,147.429 c -13.33-13.33 -28.80-28.827 -34.395-34.395 -5.595-5.595 -14.729-5.595 -20.325,0.00 -5.595,5.568 -21.093,21.038 -34.423,34.395 l -12.562,12.507 c -13.33,13.33 -28.827,28.827 -34.395,34.423 -5.595,5.595 -5.595,14.729 0.00,20.325 5.568,5.595 21.038,21.093 34.395,34.423 l 105.024,104.969 c 13.33,13.33 26.496,26.551 29.321,29.266 2.825,2.825 2.825,7.378 0.00,10.176 -2.77,2.825 -15.991,16.018 -29.321,29.349 l -12.562,12.562 c -13.33,13.33 -26.496,26.496 -29.321,29.266 -2.825,2.825 -2.77,7.378 0.00,10.176 2.825,2.825 8.75,5.074 13.193,5.074 4.471,0.00 23.534-0.082 42.35-0.137 l 155.547-0.603 c 18.871-0.082 39.497-0.137 45.888-0.137 6.363,0.00 11.602-5.211 11.602-11.602 0.00-6.336 0.082-27.017 0.137-45.888 l 0.658-153.216 C 514.203,249.573 514.286,229.989 514.286,224.887 c 0.00-5.074 -2.277-11.547 -5.074-14.318 z M 411.429,0.00 l 0.00,171.429 -68.571-68.571 0.00-51.429 c 0.00-9.435 -7.707-17.143 -17.143-17.143 l -240.00,0.00 c -9.435,0.00 -17.143,7.707 -17.143,17.143 l 0.00,240.00 c 0.00,9.435 7.707,17.143 17.143,17.143 l 51.429,0.00 68.571,68.571 -171.429,0.00 C 15.442,377.143 0.00,361.728 0.00,342.857 L 0.00,0.00 C 0.00-18.843 15.442-34.286 34.286-34.286 l 342.857,0.00 c 18.871,0.00 34.286,15.442 34.286,34.286" data-tags="export_icon" />
<glyph unicode="&#x26;" d="M0.00,480.00,M0.00-32.00,M 457.37,246.63 406.63,297.37 C 394.163,309.837 369.613,320.00 352.00,320.00 l -128.00,0.00 c -17.613,0.00 -32.00-14.413 -32.00-32.00 L 192.00,0.00 C 192.00-17.587 206.413-32.00 224.00-32.00 l 224.00,0.00 c 17.613,0.00 32.00,14.413 32.00,32.00 l 0.00,192.00 c 0.00,17.613 -10.189,42.163 -22.63,54.63 z m -3.866-57.37 c -1.51-0.154 -42.726-3.661 -69.325-3.661 -22.016,0.00 -28.928,2.406 -32.512,6.016 -7.27,7.245 -8.038,50.918 -2.33,101.99 0.461,4.07 3.866,7.168 7.936,7.27 l 0.128,0.00 c 4.07,0.00 7.501-2.97 8.064-7.014 3.61-25.421 10.112-69.888 14.003-74.573 5.069-3.84 45.363-10.24 74.163-13.824 4.096-0.538 7.168-4.045 7.142-8.192 -0.077-4.122 -3.226-7.552 -7.322-7.962 z M 160.00,128.00 32.00,128.00 C 14.413,128.00 0.00,142.413 0.00,160.00 l 0.00,288.00 c 0.00,17.613 14.413,32.00 32.00,32.00 l 128.00,0.00 c 17.613,0.00 42.163-10.189 54.63-22.63 L 265.37,406.63 C 277.837,394.189 288.00,369.613 288.00,352.00 l -21.248,0.00 c 1.229,1.408 2.022,3.226 2.048,5.222 0.026,4.173 -3.046,7.654 -7.142,8.192 -28.80,3.584 -69.12,9.984 -74.163,13.85 -3.891,4.659 -10.394,49.152 -14.003,74.573 -0.614,4.045 -3.994,7.014 -8.064,7.014 l -0.128,0.00 c -4.07-0.102 -7.501-3.20 -7.936-7.27 -5.658-51.072 -4.89-94.746 2.33-101.99 2.739-2.739 7.603-4.762 19.61-5.606 C 168.013,339.354 160.00,327.834 160.00,314.163 L 160.00,128.00" horiz-adv-x="477.8666666666667" data-tags="clipboard_copy_icon" />
<glyph unicode="&#x27;" d="M-5312.291,7910.518,m 5412.477-7633.588 c -7.583-8.358 -6.891-22.86 1.467-30.443 8.358-7.583 22.86-6.877 30.443,1.481 l 93.087,93.087 24.825,0.00 42.856,42.856 -76.842,0.00 c -5.577,0.00 -11.112-2.283 -15.069-6.199 l -99.30-99.30 c -0.512-0.47 -1.01-0.969 -1.481-1.481 z m 22.417-86.846 c -42.856-42.856 -53.469-75.776 -53.788-99.30 -0.318-23.524 10.78-39.147 15.069-43.437 4.29-4.29 19.926-15.388 43.437-15.069 23.524,0.318 56.431,10.932 99.30,53.788 l 59.987,59.987 c -23.151,7.749 -43.963,23.275 -62.353,41.666 -18.39,18.39 -33.847,39.161 -41.666,62.353 z m 97.529,97.529 c -3.971-7.168 -3.432-14.142 -0.291-23.939 4.387-13.741 16.592-31.37 32.81-47.574 16.218-16.218 33.944-28.492 47.574-32.81 10.226-3.238 17.297-3.57 24.825,1.176 l 117.331,117.331 c 0.761,15.595 0.097,28.921 -1.481,39.894 -13.146,6.186 -24.534,16.259 -35.466,27.191 -10.835,10.835 -20.923,22.431 -27.191,35.466 -10.96,1.564 -24.327,2.228 -39.894,1.481 z m 179.975,138.60 c -0.055-0.277 -0.263-0.609 -0.291-0.886 -0.249-2.034 -0.221-4.733 1.481-8.566 3.404-7.68 12.468-18.377 23.054-28.963 10.586-10.586 21.061-19.387 28.672-22.749 3.805-1.674 6.85-2.034 8.87-1.771 l 34.276,34.276 c 20.591,19.041 10.019,39.037 -6.794,55.85 -16.813,16.813 -36.518,27.081 -55.559,6.504 l -33.695-33.695 z m -388.027-424.088 c -5.397-7.362 -4.276-18.736 2.463-24.894 6.739-6.158 18.169-6.269 25.019-0.221 l 41.375,41.375 c -6.739,3.75 -11.804,7.666 -15.069,10.932 -3.28,3.28 -7.417,8.538 -11.236,15.374 l -41.375-41.375 c -0.415-0.374 -0.803-0.775 -1.176-1.176 z" data-tags="pen_1" />
<glyph unicode="&#x28;" d="M 254.059,418.977C 205.881,476.227, 169.369,480.00, 96.00,480.00l0.00-256.00 c 128.267,64.00, 142.636-8.335, 223.506-1.023
		C 399.234,230.197, 467.031,291.564, 512.00,352.00C 384.644,322.547, 320.54,339.977, 254.059,418.977zM0.00,480.00L 64.00,480.00L 64.00-32.00L0.00-32.00z" data-tags="flag" />
<glyph unicode="&#x29;" d="M0.00-32.102,m 506.936,113.357 -142.597,142.625 142.597,142.625 c 6.73,6.703 6.73,17.622 0.00,24.325 l -84.005,84.033 c -3.267,3.24 -7.568,5.027 -12.176,5.027 -4.608,0.00 -8.909-1.787 -12.148-5.027 L 255.981,332.209 113.385,474.806 c -3.267,3.24 -7.568,5.027 -12.176,5.027 -4.608,0.00 -8.909-1.787 -12.148-5.027 L 5.055,390.828 C 1.787,387.561 0.00,383.232 0.00,378.68 c 0.00-4.608 1.787-8.937 5.055-12.176 L 147.624,223.851 5.055,81.254 C 1.787,77.987 0.00,73.658 0.00,69.078 0.00,64.526 1.787,60.169 5.055,56.93 L 89.06-27.048 C 92.328-30.315 96.628-32.102 101.208-32.102 105.816-32.102 110.089-30.315 113.385-27.048 L 255.981,115.577 398.634-27.048 C 401.873-30.315 406.174-32.102 410.726-32.102 c 4.608,0.00 8.937,1.787 12.176,5.055 L 506.936,56.93 c 3.267,3.24 5.055,7.624 5.055,12.148 0.00,4.608 -1.787,8.937 -5.055,12.148" data-tags="delete_icon" />
<glyph unicode="&#x2b;" d="M0.00,480.00,M0.00-32.00,m 511.974,362.214 c -7.245,94.438 -66.637,143.206 -118.733,148.557 C 385.126,479.565 377.318,480.00 370.022,480.00 312.73,480.00 283.494,453.632 256.00,420.454 228.506,453.632 199.219,480.00 141.952,480.00 134.682,480.00 126.848,479.565 118.733,478.746 66.637,473.395 7.27,424.627 0.00,329.574 l 0.026-30.413 C 7.706,196.096 89.958,88.243 251.52-30.541 252.851-31.488 254.438-32.00 256.00-32.00 257.562-32.00 259.149-31.488 260.454-30.541 422.042,88.243 504.294,196.096 512.00,299.776 l -0.026,30.438 z M 448.00,299.827 C 442.47,227.584 377.882,141.696 256.00,46.362 134.118,141.747 69.478,228.326 63.846,303.898 l 0.154,25.60 c 4.582,58.01 39.142,83.328 61.261,85.606 5.734,0.563 11.418,0.896 16.717,0.896 27.827,0.00 40.55-7.142 64.742-36.378 L 256.00,320.077 305.306,379.622 C 329.498,408.858 342.17,416.00 370.022,416.00 c 5.325,0.00 10.982-0.358 16.87-0.922 22.016-2.253 56.576-28.006 61.286-89.754 L 448.00,299.827" data-tags="heart_empty_icon" />
<glyph unicode="&#x2c;" d="M 512.00,299.776 C 504.294,196.096 422.042,88.243 260.454-30.541 259.149-31.488 257.562-32.00 256.00-32.00 254.438-32.00 252.851-31.488 251.52-30.541 89.958,88.243 7.706,196.096 0.026,299.136 L 0.00,329.574 c 7.27,95.104 66.637,143.846 118.733,149.171 8.141,0.794 15.974,1.254 23.27,1.254 C 199.219,480.00 228.506,453.632 256.00,420.454 283.494,453.632 312.73,480.00 370.022,480.00 c 7.322,0.00 15.13-0.461 23.27-1.254 52.096-5.35 111.488-54.118 118.733-148.557 L 512.00,299.776" data-tags="heart_icon" />
<glyph unicode="&#x2d;" d="M 64.00,448.00l 32.00,0.00 l0.00-32.00 L 64.00,416.00 L 64.00,448.00 z M 128.00,448.00l 32.00,0.00 l0.00-32.00 L 128.00,416.00 L 128.00,448.00 z M 192.00,448.00l 256.00,0.00 l0.00-32.00 L 192.00,416.00 L 192.00,448.00 z M 480.00,384.00l0.00-328.00 c0.00-28.00-28.00-56.00-56.00-56.00
	l-336.00,0.00 C 60.00,0.00, 32.00,28.00, 32.00,56.00L 32.00,384.00 L 480.00,384.00 z M0.00,416.00l0.00-384.00 c0.00-32.00, 32.00-64.00, 64.00-64.00l 384.00,0.00 c 32.00,0.00, 64.00,32.00, 64.00,64.00L 512.00,416.00 c0.00,32.00-32.00,64.00-64.00,64.00L 64.00,480.00 C 32.00,480.00,0.00,448.00,0.00,416.00z M 64.00,352.00l0.00-256.00 c0.00-32.00, 32.00-64.00, 64.00-64.00l 256.00,0.00 
	c 32.00,0.00, 64.00,32.00, 64.00,64.00L 448.00,352.00 L 64.00,352.00 z" data-tags="window, software, program" />
<glyph unicode="&#x2e;" d="M 64.00,448.00l 32.00,0.00 l0.00-32.00 L 64.00,416.00 L 64.00,448.00 z M 128.00,448.00l 32.00,0.00 l0.00-32.00 L 128.00,416.00 L 128.00,448.00 z M 192.00,448.00l 256.00,0.00 l0.00-32.00 L 192.00,416.00 L 192.00,448.00 z M 480.00,384.00l0.00-328.00 c0.00-28.00-28.00-56.00-56.00-56.00
	l-336.00,0.00 C 60.00,0.00, 32.00,28.00, 32.00,56.00L 32.00,384.00 L 480.00,384.00 z M0.00,416.00l0.00-384.00 c0.00-32.00, 32.00-64.00, 64.00-64.00l 384.00,0.00 c 32.00,0.00, 64.00,32.00, 64.00,64.00L 512.00,416.00 c0.00,32.00-32.00,64.00-64.00,64.00L 64.00,480.00 C 32.00,480.00,0.00,448.00,0.00,416.00z" data-tags="window, software, program" />
<glyph unicode="&#x2f;" d="M 372.977,326.348L 137.456,326.371L 255.232,121.564 z" data-tags="triangle, arrow, down, bottom" />
<glyph unicode="&#x33;" d="M 224.00,288.00L 416.00,288.00L 416.00,256.00L 224.00,256.00zM 224.00,224.00L 416.00,224.00L 416.00,192.00L 224.00,192.00zM 224.00,160.00L 416.00,160.00L 416.00,128.00L 224.00,128.00zM 224.00,96.00L 352.00,96.00L 352.00,64.00L 224.00,64.00zM 480.00,384.00l-96.00,0.00 L 384.00,448.00 c0.00,17.60-14.40,32.00-32.00,32.00L 32.00,480.00 C 14.40,480.00,0.00,465.60,0.00,448.00l0.00-352.00 c0.00-17.60, 14.40-32.00, 32.00-32.00l 96.00,0.00 l0.00-64.00 c0.00-17.60, 14.40-32.00, 32.00-32.00l 320.00,0.00 
		c 17.60,0.00, 32.00,14.40, 32.00,32.00L 512.00,352.00 C 512.00,369.60, 497.60,384.00, 480.00,384.00z M 128.00,352.00l0.00-240.00 L 48.00,112.00 L 48.00,432.00 l 288.00,0.00 l0.00-48.00 L 160.00,384.00 C 142.40,384.00, 128.00,369.60, 128.00,352.00z M 464.00,16.00L 176.00,16.00 
		L 176.00,336.00 l 288.00,0.00 L 464.00,16.00 z" data-tags="copy, new, papers" />
<glyph unicode="&#x34;" d="M 256.24,367.328c-167.944,0.00-256.00-123.74-256.00-143.36s 88.056-143.36, 256.00-143.36s 256.00,123.74, 256.00,143.36S 424.184,367.328, 256.24,367.328z
		 M 256.24,113.689c-62.84,0.00-113.781,49.368-113.781,110.28c0.00,60.908, 50.94,110.28, 113.781,110.28
		s 113.781-49.372, 113.781-110.28C 370.02,163.057, 319.079,113.689, 256.24,113.689z M 256.24,223.968
		c-10.42,11.44, 16.984,55.139,0.00,55.139c-31.416,0.00-56.892-24.692-56.892-55.139c0.00-30.452, 25.476-55.139, 56.892-55.139
		s 56.887,24.689, 56.887,55.139C 313.128,237.956, 265.10,214.247, 256.24,223.968z" data-tags="eye, views" />
<glyph unicode="&#x36;" d="M 480.00,89.632L 345.504,224.00L 480.00,358.368L 390.368,448.00L 256.00,313.568L 121.568,448.00L 32.00,358.368L 166.368,224.00L 32.00,89.632L 121.568,0.00L 256.00,134.432L 390.368,0.00 		z" data-tags="x, cancel, close" />
<glyph unicode="&#x38;" d="M 313.392,223.984l 97.536-97.536c 6.336-6.336, 6.336-16.624,0.00-22.96l-34.416-34.416
	c-6.336-6.336-16.608-6.336-22.96,0.00L 256.00,166.608l-97.552-97.536c-6.336-6.336-16.608-6.336-22.944,0.00l-34.432,34.416
	c-6.336,6.336-6.336,16.608,0.00,22.96l 97.552,97.536L 101.072,321.536c-6.336,6.336-6.336,16.624,0.00,22.96L 135.52,378.912
	c 6.336,6.336, 16.608,6.336, 22.944,0.00L 256.00,281.36l 97.552,97.552c 6.336,6.336, 16.608,6.336, 22.96,0.00l 34.416-34.432
	c 6.336-6.336, 6.336-16.608,0.00-22.96L 313.392,223.984z" data-tags="cancel, close, remove, dismiss" />
<glyph unicode="&#x39;" d="M 549.209,378.388 239.675-32.226 C 236.574-35.328 232.556-36.923 228.51-36.923 224.433-36.923 220.357-35.328 217.285-32.226 L 4.667,182.961 C -1.566,189.223 -1.566,199.385 4.608,205.676 l 101.819,103.119 c 2.983,3.042 7.001,4.697 11.254,4.697 l 0.325,0.00 C 122.319,313.403 126.395,311.572 129.29,308.322 L 231.05,196.431 510.10,476.308 c 2.983,2.481 6.558,3.692 10.132,3.692 4.135,0.00 8.241-1.595 11.313-4.756 l 18.639-70.597 c 1.654-8.655 5.199-20.057 -1.004-26.26" horiz-adv-x="551.3846153846155" data-tags="checkmark_icon" />
<glyph unicode="&#x3a;" d="M 463.968,343.504l-34.144,34.144c-6.304,6.288-16.48,6.288-22.768,0.00L 202.336,172.928
	L 104.96,271.008c-6.288,6.288-16.464,6.288-22.768,0.00l-34.144-34.144c-6.288-6.304-6.288-16.48,0.00-22.768l 142.784-143.744
	c 6.288-6.288, 16.48-6.288, 22.768,0.00L 463.968,320.736C 470.256,327.008, 470.256,337.216, 463.968,343.504z" data-tags="checkmark, tick, approve, submit" />
<glyph unicode="&#x3d;" d="M 431.84,182.16c 34.496-25.712, 64.064-49.248, 64.064-49.248l-42.096-73.824l-76.08,33.584
	l-70.496-41.232C 302.464,7.968, 298.096-32.00, 298.096-32.00l-84.192,0.00 l-9.344,83.696l-69.472,41.328l-76.912-33.952l-42.08,73.824
	c0.00,0.00, 29.072,23.424, 63.488,49.056l0.00,84.144 l-63.488,48.96l 42.08,73.84l 75.072-33.408l 74.528,40.432L 213.904,480.00l 84.192,0.00 l 6.096-83.728l 73.504-41.248
	l 76.128,33.888l 42.096-73.84l-64.064-49.136L 431.856,182.16 z M 256.00,288.00c-35.344,0.00-64.00-28.656-64.00-64.00s 28.656-64.00, 64.00-64.00s 64.00,28.656, 64.00,64.00S 291.344,288.00, 256.00,288.00z" data-tags="cog, gear, settings, generate, make, options" />
<glyph unicode="&#x35;" d="M 96.00,288.00L0.00,192.00L 192.00,0.00L 512.00,320.00L 416.00,416.00L 192.00,192.00 z" data-tags="checkmark, tick" />
<glyph unicode="&#x37;" d="M 256.00,416.00c 105.872,0.00, 192.00-86.128, 192.00-192.00s-86.128-192.00-192.00-192.00S 64.00,118.128, 64.00,224.00S 150.128,416.00, 256.00,416.00 M 256.00,480.00
			C 114.624,480.00,0.00,365.376,0.00,224.00s 114.624-256.00, 256.00-256.00s 256.00,114.624, 256.00,256.00S 397.376,480.00, 256.00,480.00L 256.00,480.00zM 342.752,182.752L 288.00,237.568L 288.00,352.00 l-64.368,0.00 l0.00-127.872 c0.00-9.632, 4.432-17.936, 11.12-23.872l 62.752-62.752
			L 342.752,182.752z" data-tags="clock, time" />
<glyph unicode="&#x2a;" d="M0.00,480.00,m 394.071-408.428 -299.794,0.00 0.00,299.794 119.918,0.00 59.959,89.938 -269.815,0.00 0.00-479.67 479.67,0.00 0.00,179.876 -29.979-29.979 z M 124.257,131.531 c 0.00,0.00 29.979,59.959 119.918,89.938 89.938,29.979 89.938,0.00 89.938,0.00 l 0.00-119.918 179.876,179.876 -179.876,179.876 0.00-89.938 C 289.503,364.92 244.474,341.686 214.195,311.407 154.236,251.448 124.257,131.531 124.257,131.531 z" data-tags="export" />
<glyph unicode="&#x3e;" d="M0.00,480.00,M0.00-34.286,m 411.429,514.286 -308.571,0.00 C 46.299,480.00 0.00,433.728 0.00,377.143 L 0.00,68.571 C 0.00,12.014 46.299-34.286 102.857-34.286 l 308.571,0.00 c 56.585,0.00 102.857,46.299 102.857,102.857 l 0.00,308.571 c 0.00,56.585 -46.299,102.857 -102.857,102.857 z M 445.714,92.544 C 445.714,54.857 425.143,34.286 387.456,34.286 L 126.857,34.286 C 89.143,34.286 68.571,54.857 68.571,92.544 l 0.00,260.599 c 0.00,37.714 20.571,58.286 58.286,58.286 l 260.599,0.00 C 425.143,411.429 445.714,390.857 445.714,353.143 l 0.00-260.599" data-tags="checkbox_unchecked_icon" />
<glyph unicode="&#x3f;" d="M0.00,480.00,M0.00-34.286,m 233.033,317.266 -21.367,23.479 c -12.699,13.961 -26.222,27.813 -27.785,28.142 -1.536,0.384 -2.825,0.658 -2.88,0.658 -0.027,0.00 -3.95-0.713 -5.211-1.536 -1.317-0.85 -13.166-12.562 -26.441-25.947 L 130.039,288.137 c -13.275-13.413 -27.291-30.994 -26.167-33.984 1.179-3.017 12.919-16.457 26.167-29.87 L 222.885,130.395 C 236.133,116.955 249.106,104.585 251.739,102.857 c 0.00,0.00 0.00,0.00 2.715,0.00 2.688,0.00 2.688,0.00 2.688,0.00 2.633,1.728 14.016,15.442 25.399,30.528 l 163.995,217.591 c 11.355,15.058 21.559,29.815 22.711,32.777 1.125,2.99 -4.663,20.626 -7.899,34.231 -3.264,13.55 -8.037,26.057 -10.67,27.813 0.00,0.00 0.00,0.00 -2.743,0.00 -2.331,0.00 -2.331,0.00 -2.331,0.00 -2.414-1.344 -15.25-13.385 -28.581-26.715 L 280.32,281.938 c -13.303-13.33 -34.56-12.864 -47.287,1.097 z M 497.143,241.509 445.714,190.053 445.714,89.143 C 445.714,51.429 428.571,34.286 390.857,34.286 L 126.857,34.286 C 89.143,34.286 68.571,54.857 68.571,92.544 l 0.00,260.599 c 0.00,37.714 20.571,58.286 58.286,58.286 l 97.481,0.00 51.429,51.456 c 6.281,6.226 11.465,12.206 15.141,17.115 L 102.857,480.00 C 46.299,480.00 0.00,433.728 0.00,377.143 L 0.00,68.571 C 0.00,12.014 46.299-34.286 102.857-34.286 l 308.571,0.00 c 56.585,0.00 102.857,46.299 102.857,102.857 l 0.00,188.078 c -4.91-3.73 -10.917-8.914 -17.143-15.141" data-tags="checkbox_checked_icon" />
<glyph unicode="&#x3c;" d="M 415.389,314.069 95.043,314.101 255.238,35.531 z" data-tags="triangle" />
<glyph unicode="&#xe000;" d="M0.00,480.00,m 376.732-2.893 c -65.379,0.00 -118.563-53.184 -118.563-118.563 l 0.00-84.688 -203.25,0.00 c -18.631,0.00 -33.875-15.244 -33.875-33.875 l 0.00-237.125 c 0.00-18.631 15.244-33.875 33.875-33.875 l 304.876,0.00 c 18.631,0.00 33.875,15.244 33.875,33.875 l 0.00,237.125 c 0.00,18.631 -15.244,33.875 -33.875,33.875 l -33.875,0.00 0.00,84.688 c 0.00,28.015 22.798,50.813 50.813,50.813 28.015,0.00 50.813-22.798 50.813-50.813 l 0.00-118.563 67.75,0.00 0.00,118.563 c 0.00,65.379 -53.184,118.563 -118.563,118.563 z" data-tags="unlocked" />
<glyph unicode="&#xe001;" d="M0.00,480.00,m 425.727-206.644 -33.989,0.00 0.00,67.977 C 391.738,416.312 330.762,477.288 255.783,477.288 180.804,477.288 119.828,416.312 119.828,341.333 l 0.00-67.977 -33.989,0.00 c -18.694,0.00 -33.989-15.295 -33.989-33.989 l 0.00-237.921 c 0.00-18.694 15.295-33.989 33.989-33.989 l 339.887,0.00 c 18.694,0.00 33.989,15.295 33.989,33.989 l 0.00,237.921 c 0.00,18.694 -15.295,33.989 -33.989,33.989 z M 187.806,341.333 c 0.00,37.49 30.488,67.977 67.977,67.977 37.49,0.00 67.977-30.488 67.977-67.977 l 0.00-67.977 -135.955,0.00 0.00,67.977 z" data-tags="locked" />
<glyph unicode="&#xe002;" d="M0.00,480.00,m 316.533-487.412 -256.319,0.00 c -31.413,0.00 -56.96,25.546 -56.96,56.96 l 0.00,256.319 c 0.00,31.413 25.546,56.96 56.96,56.96 l 256.319,0.00 c 31.413,0.00 56.96-25.546 56.96-56.96 l 0.00-256.319 c 0.00-31.413 -25.546-56.96 -56.96-56.96 z M 60.214,305.866 l 0.00-256.319 256.319,0.00 0.00,256.319 -256.319,0.00 z m 370.239-227.839 -28.48,0.00 0.00,56.96 28.48,0.00 0.00,284.799 -284.799,0.00 0.00-28.48 -56.96,0.00 0.00,28.48 c 0.00,31.413 25.546,56.96 56.96,56.96 l 284.799,0.00 c 31.413,0.00 56.96-25.546 56.96-56.96 l 0.00-284.799 c 0.00-31.413 -25.546-56.96 -56.96-56.96 z" data-tags="views" />
<glyph unicode="&#xe003;" d="M 460.013,428.771L 50.421,428.771 c-28.16,0.00-51.20-23.04-51.20-51.20l0.00-307.204 c0.00-28.16, 23.04-51.20, 51.20-51.20l 409.592,0.00 c 28.16,0.00, 51.20,23.04, 51.20,51.20L 511.213,377.571 
	C 511.213,405.731, 488.173,428.771, 460.013,428.771z M 116.981,380.896c 10.609,0.00, 19.20-8.36, 19.20-18.684s-8.591-18.684-19.20-18.684
	c-10.613,0.00-19.20,8.36-19.20,18.684S 106.368,380.896, 116.981,380.896z M 46.581,362.211c0.00,10.324, 8.587,18.684, 19.20,18.684
	c 10.609,0.00, 19.20-8.36, 19.20-18.684s-8.591-18.684-19.20-18.684C 55.168,343.527, 46.581,351.888, 46.581,362.211z M 460.525,70.368
	L 49.909,70.368 L 49.909,305.891 l 410.616,0.00 L 460.525,70.368 z M 460.525,346.851L 152.82,346.851 l0.00,30.72 l 307.704,0.00 L 460.525,346.851 z" data-tags="browser, window" />
<glyph unicode="&#xe007;" d="M 512.00,224.00 C 512.00,365.376 397.376,480.00 256.00,480.00 114.624,480.00 0.00,365.376 0.00,224.00 0.00,82.624 114.624-32.00 256.00-32.00 397.376-32.00 512.00,82.624 512.00,224.00 z m -384.00,76.00 256.00,0.00 -128.00-208.399 z" data-tags="ddbutton_filled" />
<glyph unicode="&#xe008;" d="M 256.00,480.00 C 114.615,480.00 0.00,365.385 0.00,224.00 0.00,82.615 114.615-32.00 256.00-32.00 397.385-32.00 512.00,82.615 512.00,224.00 512.00,365.385 397.385,480.00 256.00,480.00 z m 0.00-448.00 C 149.961,32.00 64.00,117.961 64.00,224.00 64.00,330.039 149.961,416.00 256.00,416.00 c 106.039,0.00 192.00-85.961 192.00-192.00 0.00-106.039 -85.961-192.00 -192.00-192.00 zM0.00,480.00,m 385.189-175.147 -258.378,0.024 129.207-209.144 z" data-tags="ddbutton_empty" />
<glyph unicode="&#xe004;" d="M 2.534,314.301 L 205.545,480.824 L 205.545,395.611 C 247.887,395.611 510.772,393.835 510.772,185.593 C 510.772,73.498 412.032-18.171 284.327-32.824 C 363.787-19.06 423.552,40.457 423.552,111.776 C 423.552,248.014 267.036,249.161 205.545,249.161 L 205.545,149.036 L 2.534,314.301 L 2.534,314.301 Z" data-tags="reply" />
<glyph unicode="&#xe005;" d="M0.00-35.692,m 107.789,0.00 0.00,3.368 -6.737,0.00 0.00,3.368 -3.368,0.00 0.00,3.368 -3.368,0.00 0.00,6.737 -3.368,0.00 0.00,10.105 -3.368,0.00 0.00,16.842 3.368,0.00 0.00,20.211 3.368,0.00 0.00,20.211 3.368,0.00 0.00,20.211 3.368,0.00 0.00,16.842 3.368,0.00 0.00,20.211 3.368,0.00 0.00,20.211 3.368,0.00 0.00,23.579 -3.368,0.00 0.00,3.368 -3.368,0.00 0.00,3.368 -3.368,0.00 0.00,3.368 -3.368,0.00 0.00,3.368 -3.368,0.00 0.00,3.368 -3.368,0.00 0.00,3.368 -3.368,0.00 0.00,3.368 -3.368,0.00 0.00,3.368 -3.368,0.00 0.00,3.368 -3.368,0.00 0.00,3.368 -3.368,0.00 0.00,3.368 -3.368,0.00 0.00,3.368 -3.368,0.00 0.00,3.368 -3.368,0.00 0.00,3.368 -3.368,0.00 0.00,3.368 -3.368,0.00 0.00,3.368 -3.368,0.00 0.00,3.368 -3.368,0.00 0.00,3.368 -3.368,0.00 0.00,3.368 -3.368,0.00 0.00,3.368 -3.368,0.00 0.00,3.368 -3.368,0.00 0.00,3.368 -3.368,0.00 0.00,3.368 -3.368,0.00 0.00,3.368 -3.368,0.00 0.00,3.368 -3.368,0.00 0.00,3.368 -3.368,0.00 0.00,3.368 -3.368,0.00 0.00,3.368 -3.368,0.00 0.00,3.368 -3.368,0.00 0.00,3.368 -3.368,0.00 0.00,3.368 -3.368,0.00 0.00,6.737 -3.368,0.00 0.00,30.316 3.368,0.00 0.00,6.737 3.368,0.00 0.00,3.368 3.368,0.00 0.00,3.368 6.737,0.00 0.00,3.368 6.737,0.00 0.00,3.368 20.211,0.00 0.00,3.368 23.579,0.00 0.00,3.368 23.579,0.00 0.00,3.368 23.579,0.00 0.00,3.368 23.579,0.00 0.00,3.368 23.579,0.00 0.00,3.368 10.105,0.00 0.00,3.368 3.368,0.00 0.00,6.737 3.368,0.00 0.00,6.737 3.368,0.00 0.00,6.737 3.368,0.00 0.00,6.737 3.368,0.00 0.00,6.737 3.368,0.00 0.00,6.737 3.368,0.00 0.00,6.737 3.368,0.00 0.00,6.737 3.368,0.00 0.00,6.737 3.368,0.00 0.00,6.737 3.368,0.00 0.00,6.737 3.368,0.00 0.00,6.737 3.368,0.00 0.00,6.737 3.368,0.00 0.00,6.737 3.368,0.00 0.00,6.737 3.368,0.00 0.00,6.737 3.368,0.00 0.00,6.737 3.368,0.00 0.00,6.737 3.368,0.00 0.00,6.737 3.368,0.00 0.00,6.737 3.368,0.00 0.00,3.368 3.368,0.00 0.00,3.368 6.737,0.00 0.00,3.368 33.684,0.00 0.00-3.368 6.737,0.00 0.00-3.368 3.368,0.00 0.00-3.368 3.368,0.00 0.00-6.737 3.368,0.00 0.00-6.737 3.368,0.00 0.00-6.737 3.368,0.00 0.00-6.737 3.368,0.00 0.00-6.737 3.368,0.00 0.00-6.737 3.368,0.00 0.00-6.737 3.368,0.00 0.00-6.737 3.368,0.00 0.00-6.737 3.368,0.00 0.00-6.737 3.368,0.00 0.00-6.737 3.368,0.00 0.00-6.737 3.368,0.00 0.00-6.737 3.368,0.00 0.00-6.737 3.368,0.00 0.00-6.737 3.368,0.00 0.00-6.737 3.368,0.00 0.00-6.737 3.368,0.00 0.00-6.737 3.368,0.00 0.00-6.737 3.368,0.00 0.00-6.737 3.368,0.00 0.00-3.368 10.105,0.00 0.00-3.368 23.579,0.00 0.00-3.368 23.579,0.00 0.00-3.368 23.579,0.00 0.00-3.368 23.579,0.00 0.00-3.368 23.579,0.00 0.00-3.368 20.211,0.00 0.00-3.368 6.737,0.00 0.00-3.368 6.737,0.00 0.00-3.368 3.368,0.00 0.00-3.368 3.368,0.00 0.00-6.737 3.368,0.00 0.00-30.316 -3.368,0.00 0.00-6.737 -3.368,0.00 0.00-3.368 -3.368,0.00 0.00-3.368 -3.368,0.00 0.00-3.368 -3.368,0.00 0.00-3.368 -3.368,0.00 0.00-3.368 -3.368,0.00 0.00-3.368 -3.368,0.00 0.00-3.368 -3.368,0.00 0.00-3.368 -3.368,0.00 0.00-3.368 -3.368,0.00 0.00-3.368 -3.368,0.00 0.00-3.368 -3.368,0.00 0.00-3.368 -3.368,0.00 0.00-3.368 -3.368,0.00 0.00-3.368 -3.368,0.00 0.00-3.368 -3.368,0.00 0.00-3.368 -3.368,0.00 0.00-3.368 -3.368,0.00 0.00-3.368 -3.368,0.00 0.00-3.368 -3.368,0.00 0.00-3.368 -3.368,0.00 0.00-3.368 -3.368,0.00 0.00-3.368 -3.368,0.00 0.00-3.368 -3.368,0.00 0.00-3.368 -3.368,0.00 0.00-3.368 -3.368,0.00 0.00-3.368 -3.368,0.00 0.00-3.368 -3.368,0.00 0.00-3.368 -3.368,0.00 0.00-3.368 -3.368,0.00 0.00-3.368 -3.368,0.00 0.00-3.368 -3.368,0.00 0.00-23.579 3.368,0.00 0.00-20.211 3.368,0.00 0.00-20.211 3.368,0.00 0.00-16.842 3.368,0.00 0.00-20.211 3.368,0.00 0.00-20.211 3.368,0.00 0.00-20.211 3.368,0.00 0.00-16.842 -3.368,0.00 0.00-10.105 -3.368,0.00 0.00-6.737 -3.368,0.00 0.00-3.368 -3.368,0.00 0.00-3.368 -6.737,0.00 0.00-3.368 -30.316,0.00 0.00,3.368 -10.105,0.00 0.00,3.368 -3.368,0.00 0.00,3.368 -6.737,0.00 0.00,3.368 -6.737,0.00 0.00,3.368 -6.737,0.00 0.00,3.368 -6.737,0.00 0.00,3.368 -6.737,0.00 0.00,3.368 -6.737,0.00 0.00,3.368 -6.737,0.00 0.00,3.368 -6.737,0.00 0.00,3.368 -6.737,0.00 0.00,3.368 -6.737,0.00 0.00,3.368 -3.368,0.00 0.00,3.368 -6.737,0.00 0.00,3.368 -6.737,0.00 0.00,3.368 -6.737,0.00 0.00,3.368 -6.737,0.00 0.00,3.368 -6.737,0.00 0.00,3.368 -6.737,0.00 0.00,3.368 -13.474,0.00 0.00-3.368 -6.737,0.00 0.00-3.368 -6.737,0.00 0.00-3.368 -6.737,0.00 0.00-3.368 -6.737,0.00 0.00-3.368 -6.737,0.00 0.00-3.368 -6.737,0.00 0.00-3.368 -3.368,0.00 0.00-3.368 -6.737,0.00 0.00-3.368 -6.737,0.00 0.00-3.368 -6.737,0.00 0.00-3.368 -6.737,0.00 0.00-3.368 -6.737,0.00 0.00-3.368 -6.737,0.00 0.00-3.368 -6.737,0.00 0.00-3.368 -6.737,0.00 0.00-3.368 -6.737,0.00 0.00-3.368 -6.737,0.00 0.00-3.368 -3.368,0.00 0.00-3.368 -10.105,0.00 0.00-3.368" horiz-adv-x="538.9473684210526" data-tags="star_fav_icon" />
<glyph unicode="&#xe006;" d="M0.00,480.00,M0.00-35.692,m 537.223,321.32 c -4.015,12.369 -14.552,21.208 -27.405,23.121 l -145.004,21.073 -64.835,131.368 c -5.767,11.749 -17.435,18.998 -30.477,18.998 -13.069,0.00 -24.711-7.249 -30.451-18.971 L 174.161,329.795 29.13,308.723 C 16.249,306.836 5.74,297.971 1.698,285.548 -2.371,273.152 0.943,259.813 10.267,250.759 L 115.20,148.467 90.435,4.056 C 88.253-8.798 93.40-21.571 103.936-29.251 109.811-33.482 116.709-35.692 123.931-35.692 c 5.524,0.00 10.995,1.347 15.818,3.907 L 269.474,36.365 399.171-31.784 C 403.995-34.344 409.465-35.692 414.989-35.692 c 7.249,0.00 14.147,2.237 19.941,6.494 10.617,7.653 15.791,20.372 13.555,33.199 l -24.792,144.438 104.933,102.265 c 9.324,9.135 12.638,22.474 8.623,34.897 z M 369.421,166.09 392.947,28.497 269.474,93.44 145.92,28.497 169.499,166.09 69.551,263.505 207.71,283.608 269.474,408.778 331.264,283.608 469.396,263.505 369.421,166.09" horiz-adv-x="538.9473684210526" data-tags="star_fav_empty_icon" />
<glyph unicode="&#xe009;" d="M 496.471,245.726 C 496.471,245.726 512.056,236.583 512.053,223.811 C 512.053,211.024 496.471,201.883 496.471,201.883 L 58.171-24.635 C 26.227-42.104 0.095-29.239 0.095,3.941 L 0.095,443.674 C 0.095,476.873 26.229,489.74 58.171,472.255 L 496.471,245.726 L 496.471,245.726 Z" data-tags="triright" />
<glyph unicode="&#xe00a;" d="M 15.677,245.726 453.977,472.255 C 485.919,489.74 512.053,476.873 512.053,443.674 l 0.00-439.733 c 0.00-33.18 -26.132-46.045 -58.077-28.576 L 15.677,201.883 c 0.00,0.00 -15.582,9.141 -15.582,21.928 -0.002,12.772 15.582,21.915 15.582,21.915 z" data-tags="trileft" />
<glyph unicode="&#xe00b;" d="M0.00,480.00,m 415.879-0.193 -319.759,0.00 c -52.76,0.00 -95.928-43.957 -95.928-97.683 l 0.00-195.367 c 0.00-53.726 43.167-97.683 95.928-97.683 l 31.976,0.00 c 0.00,0.00 0.016-109.245 0.00-115.529 -0.016-6.284 6.865-7.766 11.245-3.265 C 143.722-25.218 256.00,89.074 256.00,89.074 l 159.879,0.00 c 52.76,0.00 95.928,43.957 95.928,97.683 l 0.00,195.367 c 0.00,53.726 -43.167,97.683 -95.928,97.683 z" data-tags="comment" />
<glyph unicode="&#xe00c;" d="M0.00,480.00,m 256.633-4.966 c -139.836,0.00 -253.201-92.18 -253.201-205.913 0.00-74.774 49.018-140.266 122.324-176.343 0.00-0.312 0.016-108.399 0.00-114.636 -0.016-6.246 6.911-7.787 11.319-3.313 3.353,3.404 57.819,58.218 89.291,89.87 9.928-0.962 20.021-1.574 30.267-1.574 139.836,0.00 253.201,92.262 253.201,205.996 0.00,113.734 -113.365,205.913 -253.201,205.913 z" data-tags="comment2" />
<glyph unicode="&#xe00e;" d="M 255.667,479.00 C 396.874,479.00 511.333,382.959 511.333,264.50 C 511.333,146.041 396.874,50.00 255.667,50.00 C 253.46,50.00 251.276,50.037 249.083,50.083 C 199.563,22.049 124.687-20.312 119.833-23.083 C 105.536-31.247 83.031-28.396 83.083-17.00 C 83.114-10.294 83.093,48.748 83.083,106.25 C 32.012,145.466 0.00,201.841 0.00,264.50 C 0.00,382.959 114.46,479.00 255.667,479.00 Z" data-tags="comment2" />
<glyph unicode="&#xe00d;" d="M 255.667,479.00 C 114.459,479.00 0.00,382.96 0.00,264.501 C 0.00,146.04 114.459,50.00 255.667,50.00 C 257.872,50.00 260.056,50.037 262.251,50.083 C 311.771,22.048 386.648-20.312 391.499-23.083 C 405.797-31.245 428.301-28.397 428.251-17.00 C 428.219-10.293 428.24,48.749 428.251,106.251 C 479.32,145.467 511.333,201.84 511.333,264.499 C 511.333,382.96 396.875,479.00 255.667,479.00 Z" data-tags="comment2" />
<glyph unicode="&#xe00f;" d="M 429.912,223.968c0.00,26.817, 16.508,47.98, 41.368,62.532c-4.476,14.968-10.412,29.304-17.712,42.80
		c-27.872-7.292-50.432,3.632-69.40,22.593c-18.964,18.968-24.769,41.532-17.473,69.408
		c-13.496,7.30-27.832,13.232-42.807,17.708c-14.548-24.864-40.828-41.368-67.649-41.368
		c-26.817,0.00-53.096,16.504-67.653,41.368c-14.968-4.469-29.304-10.408-42.80-17.708c 7.292-27.872, 1.492-50.436-17.477-69.408
		c-18.964-18.964-41.532-29.883-69.405-22.593c-7.30-13.496-13.236-27.832-17.708-42.80
		c 24.86-14.552, 41.364-35.716, 41.364-62.532c0.00-26.811-16.504-53.104-41.364-67.653c 4.472-14.972, 10.408-29.304, 17.708-42.80
		c 27.876,7.292, 50.44,1.492, 69.405-17.48c 18.959-18.959, 24.769-41.532, 17.477-69.40
		c 13.496-7.30, 27.832-13.24, 42.804-17.708c 14.556,24.856, 40.832,41.368, 67.649,41.364c 26.821,0.00, 53.10-16.508, 67.649-41.364
		c 14.976,4.472, 29.312,10.408, 42.812,17.712c-7.292,27.864-1.496,50.436, 17.467,69.395c 18.968,18.972, 41.532,29.893, 69.40,22.60
		c 7.30,13.496, 13.236,27.828, 17.712,42.80C 446.42,175.985, 429.912,197.156, 429.912,223.968z M 256.24,130.447
		c-51.649,0.00-93.516,41.867-93.516,93.52s 41.867,93.52, 93.516,93.52s 93.512-41.867, 93.512-93.52
		S 307.888,130.447, 256.24,130.447z" data-tags="settings, cog, gear" />
<glyph unicode="&#xe020;" d="M 438.955,342.955l-59.499-59.52l-53.333,10.667l-10.667,53.333l 59.499,59.52c-8.747,2.645-17.877,4.48-27.499,4.48c-52.992,0.00-96.00-42.987-96.00-96.00
		l0.00-32.00 l-146.709-119.04c-27.883-27.627-23.787-67.797,0.00-91.669c 23.787-23.915, 63.787-27.733, 91.669,0.00l 119.04,146.709l 32.00,0.00 c 53.035,0.00, 96.00,42.987, 96.00,96.00
		C 443.456,325.077, 441.621,334.187, 438.955,342.955z" data-tags="wrench, settings" />
<glyph unicode="&#xe010;" d="M0.00,480.00,m 96.121-0.193 319.759,0.00 c 52.76,0.00 95.928-43.957 95.928-97.683 l 0.00-195.367 c 0.00-53.726 -43.167-97.683 -95.928-97.683 l -31.976,0.00 c 0.00,0.00 -0.016-109.245 0.00-115.529 0.016-6.284 -6.865-7.766 -11.245-3.265 -4.38,4.501 -116.658,118.793 -116.658,118.793 l -159.879,0.00 c -52.76,0.00 -95.928,43.957 -95.928,97.683 l 0.00,195.367 c 0.00,53.726 43.167,97.683 95.928,97.683 z" data-tags="commentflip" />
<glyph unicode="&#xe014;" d="M0.00,480.00,m 270.157-462.112 c 17.838,15.489 35.811,30.823 53.676,46.282 35.15,0.236 72.983-0.451 108.058,0.357 14.278,2.251 20.313,17.795 18.42,30.81 -0.206,115.128 0.392,212.429 -0.316,327.499 -1.257,14.685 -16.786,22.413 -30.232,20.178 -104.666-0.205 -214.548,0.409 -319.155-0.307 -14.701-1.358 -22.131-17.047 -19.972-30.434 0.158-115.136 -0.336-212.413 0.23-327.511 0.774-14.271 15.474-22.971 28.728-20.58 31.648-0.004 65.857-0.008 97.505-0.012 19.462-16.487 38.69-33.947 58.29-49.84 1.829,0.029 3.201,2.67 4.768,3.558 z m -12.083-43.949 C 237.881-8.584 217.596,8.785 197.437,26.30 162.631,26.903 114.834,25.91 80.147,27.504 56.351,31.283 40.174,55.162 42.557,78.54 42.639,199.222 42.72,319.903 42.801,440.584 45.951,460.179 61.481,476.636 81.317,479.607 195.196,480.145 334.803,479.684 448.731,479.838 c 19.30-2.84 35.423-18.036 38.868-37.301 1.265-44.667 0.236-89.641 0.62-134.426 -0.124-80.038 0.465-160.148 -0.106-240.141 -2.055-24.097 -25.106-43.424 -49.181-41.13 -30.879-0.18 -74.559-0.359 -105.438-0.539 -22.611-19.533 -45.139-39.168 -67.953-58.461 -2.649,1.831 -5.013,4.027 -7.467,6.10 zM0.00,480.00,m 363.816-365.125 c -17.021,3.709 -23.158,28.113 -9.857,39.385 12.271,13.447 37.881,4.353 38.868-13.889 2.562-16.098 -13.296-30.147 -29.011-25.496 zM0.00,480.00,m 142.712-227.237 c 0.00,46.367 0.00,92.734 0.00,139.102 11.401-0.082 22.803-0.164 34.204-0.247 0.155-39.611 0.31-79.221 0.465-118.832 18.022,33.815 66.903,45.414 97.586,21.984 23.33-17.454 28.833-48.987 27.361-76.565 0.006-34.769 0.012-69.539 0.017-104.308 -11.329-0.082 -22.657-0.164 -33.986-0.247 -0.301,39.783 0.60,79.643 -0.45,119.377 -0.603,19.801 -12.766,42.184 -34.115,44.635 -29.367,6.483 -59.522-21.462 -56.414-50.973 -0.084-37.676 -0.168-75.352 -0.253-113.028 -11.472,0.00 -22.945,0.00 -34.417,0.00 0.00,46.367 -0.001,92.735 0.00,139.102 z" data-tags="hyp-logo4" />
<glyph unicode="&#x20;" horiz-adv-x="256" />
<glyph class="hidden" unicode="&#xf000;" d="M0,480L 512 -32L0 -32 z" horiz-adv-x="0" />
</font>
</defs>
</svg>
