<?xml version="1.0" standalone="no"?>
<!DOCTYPE svg PUBLIC "-//W3C//DTD SVG 1.1//EN" "http://www.w3.org/Graphics/SVG/1.1/DTD/svg11.dtd" >
<svg xmlns="http://www.w3.org/2000/svg">
<metadata>
This is a custom SVG font generated by IcoMoon.
6
</metadata>
<defs>
<font id="icomoon" horiz-adv-x="512" >
<font-face units-per-em="512" ascent="480" descent="-32" />
<missing-glyph horiz-adv-x="512" />
<glyph unicode="&#x22;" d="M 466.895,174.875c-26.863,46.527-10.708,106.152, 36.076,133.244l-50.313,87.146c-14.375-8.427-31.088-13.259-48.923-13.259
	c-53.768,0.00-97.354,43.873-97.354,97.995L 205.752,480.001 c 0.133-16.705-4.037-33.641-12.979-49.126
	c-26.862-46.528-86.578-62.351-133.431-35.379L 9.03,308.35c 14.485-8.236, 27.025-20.294, 35.943-35.739
	c 26.819-46.454, 10.756-105.96-35.854-133.112l 50.313-87.146c 14.325,8.348, 30.958,13.127, 48.70,13.127
	c 53.598,0.00, 97.072-43.596, 97.35-97.479l 100.627,0.00 c-0.043,16.537, 4.136,33.285, 12.983,48.609
	c 26.818,46.453, 86.388,62.297, 133.207,35.506l 50.313,87.145C 488.222,147.494, 475.766,159.51, 466.895,174.875z M 256.00,120.334
	c-57.254,0.00-103.668,46.412-103.668,103.667c0.00,57.254, 46.413,103.667, 103.668,103.667c 57.254,0.00, 103.666-46.413, 103.666-103.667
	C 359.665,166.746, 313.254,120.334, 256.00,120.334z" />
<glyph unicode="&#x23;" d="M 37.50,379.50q0.00,12.75 4.25,25.625t 13.00,23.875t 22.00,19.375t 31.75,12.125l 8.25-17.50q-19.50-6.25 -31.00-18.50t-9.00-31.75q 5.75-4.50 16.00-9.375t 17.75-7.375q 2.00-8.25 0.00-16.00t-6.625-13.625t-10.75-9.625t-11.125-4.25q-18.00,1.50 -31.25,13.25t-13.25,33.75zM 130.75,379.50q0.00,12.75 4.25,25.625t 13.00,23.875t 22.00,19.375t 31.75,12.125l 8.25-17.50q-19.50-6.25 -31.00-18.50 t-9.00-31.75q 5.75-4.50 16.00-9.375t 17.75-7.375q 2.00-8.25 0.00-16.00t-6.625-13.625t-10.75-9.625t-11.125-4.25q-18.00,1.50 -31.25,13.25t-13.25,33.75z" horiz-adv-x="242.5" />
<glyph unicode="&#x24;" d="M 29.25,13.75q 20.00,6.25 33.00,21.00t 10.50,34.25q-5.75,4.50 -16.00,9.125t-17.75,7.625q-2.50,8.25 -0.25,16.00t 6.875,13.625t 10.50,9.625t 11.375,3.75q 17.00-1.50 30.875-13.00t 13.875-34.00q0.00-12.25 -5.125-25.625t-14.875-25.125t-23.625-21.00t-30.625-13.75zM 122.50,13.75q 20.00,6.25 33.00,21.00t 10.50,34.25q-5.75,4.50 -16.00,9.125t-17.75,7.625q-2.50,8.25 -0.25,16.00t 6.875,13.625 t 10.50,9.625t 11.375,3.75q 17.00-1.50 30.875-13.00t 13.875-34.00q0.00-12.25 -5.125-25.625t-14.875-25.125t-23.625-21.00t-30.625-13.75z" horiz-adv-x="242.5" />
<glyph unicode="&#x25;" d="M0.00,480.00,M0.00,480.00,M0.00-32.00,m 506.948,243.739 c -2.813-2.813 -7.345-2.84 -10.131-0.027 -2.758,2.813 -15.92,15.947 -29.136,29.191 l -12.452,12.506 c -13.271,13.271 -26.433,26.378 -29.218,29.191 -2.813,2.758 -7.345,2.758 -10.131,0.00 -2.813-2.813 -15.947-15.947 -29.191-29.191 L 282.132,148.907 c -13.271-13.271 -28.672-28.699 -34.243-34.243 -5.571-5.571 -14.664-5.571 -20.234,0.00 -5.571,5.543 -20.999,20.944 -34.27,34.243 l -12.506,12.452 c -13.271,13.271 -28.699,28.699 -34.243,34.27 -5.571,5.571 -5.571,14.664 0.00,20.234 5.543,5.571 20.944,20.999 34.243,34.27 l 104.557,104.503 c 13.271,13.271 26.378,26.433 29.191,29.136 2.813,2.813 2.813,7.345 0.00,10.131 -2.758,2.813 -15.92,15.947 -29.191,29.218 l -12.506,12.506 c -13.271,13.271 -26.378,26.378 -29.191,29.136 -2.813,2.813 -2.758,7.345 0.00,10.131 2.813,2.813 8.711,5.052 13.135,5.052 4.451,0.00 23.429-0.082 42.161-0.137 l 154.856-0.601 c 18.787-0.082 39.322-0.137 45.684-0.137 6.335,0.00 11.551-5.188 11.551-11.551 0.00-6.308 0.082-26.897 0.137-45.684 l 0.655-152.535 C 511.918,250.597 512.00,231.10 512.00,226.021 c 0.00-5.052 -2.266-11.496 -5.052-14.254 z M 409.60,2.133 l 0.00,170.667 -68.267-68.267 0.00-51.20 c 0.00-9.393 -7.673-17.067 -17.067-17.067 l -238.933,0.00 c -9.393,0.00 -17.067,7.673 -17.067,17.067 l 0.00,238.933 c 0.00,9.393 7.673,17.067 17.067,17.067 l 51.20,0.00 68.267,68.267 -170.667,0.00 C 15.374,377.60 0.00,362.254 0.00,343.467 L 0.00,2.133 C 0.00-16.626 15.374-32.00 34.133-32.00 l 341.333,0.00 c 18.787,0.00 34.133,15.374 34.133,34.133" />
<glyph unicode="&#x26;" d="M0.00,480.00,M0.00,480.00,M0.00-32.00,M 457.37,246.63 406.63,297.37 C 394.163,309.837 369.613,320.00 352.00,320.00 l -128.00,0.00 c -17.613,0.00 -32.00-14.413 -32.00-32.00 L 192.00,0.00 C 192.00-17.587 206.413-32.00 224.00-32.00 l 224.00,0.00 c 17.613,0.00 32.00,14.413 32.00,32.00 l 0.00,192.00 c 0.00,17.613 -10.189,42.163 -22.63,54.63 z m -3.866-57.37 c -1.51-0.154 -42.726-3.661 -69.325-3.661 -22.016,0.00 -28.928,2.406 -32.512,6.016 -7.27,7.245 -8.038,50.918 -2.33,101.99 0.461,4.07 3.866,7.168 7.936,7.27 l 0.128,0.00 c 4.07,0.00 7.501-2.97 8.064-7.014 3.61-25.421 10.112-69.888 14.003-74.573 5.069-3.84 45.363-10.24 74.163-13.824 4.096-0.538 7.168-4.045 7.142-8.192 -0.077-4.122 -3.226-7.552 -7.322-7.962 z M 160.00,128.00 32.00,128.00 C 14.413,128.00 0.00,142.413 0.00,160.00 l 0.00,288.00 c 0.00,17.613 14.413,32.00 32.00,32.00 l 128.00,0.00 c 17.613,0.00 42.163-10.189 54.63-22.63 L 265.37,406.63 C 277.837,394.189 288.00,369.613 288.00,352.00 l -21.248,0.00 c 1.229,1.408 2.022,3.226 2.048,5.222 0.026,4.173 -3.046,7.654 -7.142,8.192 -28.80,3.584 -69.12,9.984 -74.163,13.85 -3.891,4.659 -10.394,49.152 -14.003,74.573 -0.614,4.045 -3.994,7.014 -8.064,7.014 l -0.128,0.00 c -4.07-0.102 -7.501-3.20 -7.936-7.27 -5.658-51.072 -4.89-94.746 2.33-101.99 2.739-2.739 7.603-4.762 19.61-5.606 C 168.013,339.354 160.00,327.834 160.00,314.163 L 160.00,128.00" horiz-adv-x="480" />
<glyph unicode="&#x27;" d="M-5270.052,7851.436,m 5369.441-7572.892 c -7.523-8.292 -6.836-22.678 1.455-30.201 8.292-7.523 22.678-6.823 30.201,1.469 l 92.347,92.347 24.628,0.00 42.515,42.515 -76.231,0.00 c -5.532,0.00 -11.023-2.265 -14.95-6.15 l -98.511-98.511 c -0.508-0.467 -1.002-0.961 -1.469-1.469 z m 22.239-86.156 c -42.515-42.515 -53.044-75.173 -53.36-98.511 -0.316-23.337 10.694-38.836 14.95-43.092 4.256-4.256 19.768-15.265 43.092-14.95 23.337,0.316 55.982,10.845 98.511,53.36 l 59.51,59.51 c -22.967,7.688 -43.613,23.09 -61.858,41.334 -18.244,18.244 -33.578,38.85 -41.334,61.858 z m 96.754,96.754 c -3.94-7.111 -3.404-14.03 -0.288-23.749 4.352-13.632 16.46-31.121 32.549-47.196 16.089-16.089 33.674-28.266 47.196-32.549 10.145-3.212 17.16-3.542 24.628,1.167 l 116.398,116.398 c 0.755,15.471 0.096,28.691 -1.469,39.577 -13.041,6.136 -24.339,16.13 -35.184,26.975 -10.749,10.749 -20.756,22.253 -26.975,35.184 -10.872,1.551 -24.133,2.21 -39.577,1.469 z m 178.544,137.498 c -0.055-0.275 -0.261-0.604 -0.288-0.879 -0.247-2.018 -0.22-4.695 1.469-8.498 3.377-7.619 12.369-18.231 22.871-28.732 10.502-10.502 20.894-19.233 28.444-22.569 3.775-1.661 6.795-2.018 8.80-1.757 l 34.004,34.004 c 20.427,18.889 9.939,38.726 -6.74,55.405 -16.679,16.679 -36.228,26.865 -55.117,6.452 l -33.427-33.427 z m -384.942-420.716 c -5.354-7.303 -4.242-18.587 2.444-24.696 6.685-6.109 18.025-6.219 24.82-0.22 l 41.046,41.046 c -6.685,3.72 -11.71,7.605 -14.95,10.845 -3.253,3.253 -7.358,8.47 -11.147,15.252 l -41.046-41.046 c -0.412-0.371 -0.796-0.769 -1.167-1.167 z" horiz-adv-x="512.0368666799563" />
<glyph unicode="&#x28;" d="M 254.059,418.977C 205.881,476.227, 169.369,480.00, 96.00,480.00l0.00-256.00 c 128.267,64.00, 142.636-8.335, 223.506-1.023
		C 399.234,230.197, 467.031,291.564, 512.00,352.00C 384.644,322.547, 320.54,339.977, 254.059,418.977zM0.00,480.00L 64.00,480.00L 64.00-32.00L0.00-32.00z" />
<glyph unicode="&#x29;" d="M0.00-31.986,m 506.821,113.331 -142.564,142.592 142.564,142.592 c 6.729,6.701 6.729,17.618 0.00,24.319 l -83.986,84.014 c -3.267,3.239 -7.567,5.026 -12.174,5.026 -4.607,0.00 -8.907-1.787 -12.146-5.026 L 255.923,332.242 113.359,474.807 c -3.267,3.239 -7.567,5.026 -12.174,5.026 -4.607,0.00 -8.907-1.787 -12.146-5.026 L 5.054,390.848 C 1.787,387.582 0.00,383.254 0.00,378.703 c 0.00-4.607 1.787-8.935 5.054-12.174 L 147.59,223.909 5.054,81.345 C 1.787,78.078 0.00,73.751 0.00,69.171 0.00,64.62 1.787,60.265 5.054,57.026 L 89.04-26.932 C 92.307-30.199 96.606-31.986 101.185-31.986 105.792-31.986 110.064-30.199 113.359-26.932 L 255.923,115.66 398.543-26.932 C 401.782-30.199 406.082-31.986 410.633-31.986 c 4.607,0.00 8.935,1.787 12.174,5.054 L 506.821,57.026 c 3.267,3.239 5.054,7.622 5.054,12.146 0.00,4.607 -1.787,8.935 -5.054,12.146" />
<glyph unicode="&#x2b;" d="M0.00,480.00,M0.00,480.00,M0.00-32.00,m 511.974,362.214 c -7.245,94.438 -66.637,143.206 -118.733,148.557 C 385.126,479.565 377.318,480.00 370.022,480.00 312.73,480.00 283.494,453.632 256.00,420.454 228.506,453.632 199.219,480.00 141.952,480.00 134.682,480.00 126.848,479.565 118.733,478.746 66.637,473.395 7.27,424.627 0.00,329.574 l 0.026-30.413 C 7.706,196.096 89.958,88.243 251.52-30.541 252.851-31.488 254.438-32.00 256.00-32.00 257.562-32.00 259.149-31.488 260.454-30.541 422.042,88.243 504.294,196.096 512.00,299.776 l -0.026,30.438 z M 448.00,299.827 C 442.47,227.584 377.882,141.696 256.00,46.362 134.118,141.747 69.478,228.326 63.846,303.898 l 0.154,25.60 c 4.582,58.01 39.142,83.328 61.261,85.606 5.734,0.563 11.418,0.896 16.717,0.896 27.827,0.00 40.55-7.142 64.742-36.378 L 256.00,320.077 305.306,379.622 C 329.498,408.858 342.17,416.00 370.022,416.00 c 5.325,0.00 10.982-0.358 16.87-0.922 22.016-2.253 56.576-28.006 61.286-89.754 L 448.00,299.827" />
<glyph unicode="&#x2c;" d="M 512.00,299.776 C 504.294,196.096 422.042,88.243 260.454-30.541 259.149-31.488 257.562-32.00 256.00-32.00 254.438-32.00 252.851-31.488 251.52-30.541 89.958,88.243 7.706,196.096 0.026,299.136 L 0.00,329.574 c 7.27,95.104 66.637,143.846 118.733,149.171 8.141,0.794 15.974,1.254 23.27,1.254 C 199.219,480.00 228.506,453.632 256.00,420.454 283.494,453.632 312.73,480.00 370.022,480.00 c 7.322,0.00 15.13-0.461 23.27-1.254 52.096-5.35 111.488-54.118 118.733-148.557 L 512.00,299.776" />
<glyph unicode="&#x2d;" d="M 64.00,448.00l 32.00,0.00 l0.00-32.00 L 64.00,416.00 L 64.00,448.00 z M 128.00,448.00l 32.00,0.00 l0.00-32.00 L 128.00,416.00 L 128.00,448.00 z M 192.00,448.00l 256.00,0.00 l0.00-32.00 L 192.00,416.00 L 192.00,448.00 z M 480.00,384.00l0.00-328.00 c0.00-28.00-28.00-56.00-56.00-56.00
	l-336.00,0.00 C 60.00,0.00, 32.00,28.00, 32.00,56.00L 32.00,384.00 L 480.00,384.00 z M0.00,416.00l0.00-384.00 c0.00-32.00, 32.00-64.00, 64.00-64.00l 384.00,0.00 c 32.00,0.00, 64.00,32.00, 64.00,64.00L 512.00,416.00 c0.00,32.00-32.00,64.00-64.00,64.00L 64.00,480.00 C 32.00,480.00,0.00,448.00,0.00,416.00z M 64.00,352.00l0.00-256.00 c0.00-32.00, 32.00-64.00, 64.00-64.00l 256.00,0.00 
	c 32.00,0.00, 64.00,32.00, 64.00,64.00L 448.00,352.00 L 64.00,352.00 z" />
<glyph unicode="&#x2e;" d="M 64.00,448.00l 32.00,0.00 l0.00-32.00 L 64.00,416.00 L 64.00,448.00 z M 128.00,448.00l 32.00,0.00 l0.00-32.00 L 128.00,416.00 L 128.00,448.00 z M 192.00,448.00l 256.00,0.00 l0.00-32.00 L 192.00,416.00 L 192.00,448.00 z M 480.00,384.00l0.00-328.00 c0.00-28.00-28.00-56.00-56.00-56.00
	l-336.00,0.00 C 60.00,0.00, 32.00,28.00, 32.00,56.00L 32.00,384.00 L 480.00,384.00 z M0.00,416.00l0.00-384.00 c0.00-32.00, 32.00-64.00, 64.00-64.00l 384.00,0.00 c 32.00,0.00, 64.00,32.00, 64.00,64.00L 512.00,416.00 c0.00,32.00-32.00,64.00-64.00,64.00L 64.00,480.00 C 32.00,480.00,0.00,448.00,0.00,416.00z" />
<glyph unicode="&#x2f;" d="M 372.977,326.348L 137.456,326.371L 255.232,121.564 z" />
<glyph unicode="&#x33;" d="M 224.00,288.00L 416.00,288.00L 416.00,256.00L 224.00,256.00zM 224.00,224.00L 416.00,224.00L 416.00,192.00L 224.00,192.00zM 224.00,160.00L 416.00,160.00L 416.00,128.00L 224.00,128.00zM 224.00,96.00L 352.00,96.00L 352.00,64.00L 224.00,64.00zM 480.00,384.00l-96.00,0.00 L 384.00,448.00 c0.00,17.60-14.40,32.00-32.00,32.00L 32.00,480.00 C 14.40,480.00,0.00,465.60,0.00,448.00l0.00-352.00 c0.00-17.60, 14.40-32.00, 32.00-32.00l 96.00,0.00 l0.00-64.00 c0.00-17.60, 14.40-32.00, 32.00-32.00l 320.00,0.00 
		c 17.60,0.00, 32.00,14.40, 32.00,32.00L 512.00,352.00 C 512.00,369.60, 497.60,384.00, 480.00,384.00z M 128.00,352.00l0.00-240.00 L 48.00,112.00 L 48.00,432.00 l 288.00,0.00 l0.00-48.00 L 160.00,384.00 C 142.40,384.00, 128.00,369.60, 128.00,352.00z M 464.00,16.00L 176.00,16.00 
		L 176.00,336.00 l 288.00,0.00 L 464.00,16.00 z" />
<glyph unicode="&#x34;" d="M 256.24,367.328c-167.944,0.00-256.00-123.74-256.00-143.36s 88.056-143.36, 256.00-143.36s 256.00,123.74, 256.00,143.36S 424.184,367.328, 256.24,367.328z
		 M 256.24,113.689c-62.84,0.00-113.781,49.368-113.781,110.28c0.00,60.908, 50.94,110.28, 113.781,110.28
		s 113.781-49.372, 113.781-110.28C 370.02,163.057, 319.079,113.689, 256.24,113.689z M 256.24,223.968
		c-10.42,11.44, 16.984,55.139,0.00,55.139c-31.416,0.00-56.892-24.692-56.892-55.139c0.00-30.452, 25.476-55.139, 56.892-55.139
		s 56.887,24.689, 56.887,55.139C 313.128,237.956, 265.10,214.247, 256.24,223.968z" />
<glyph unicode="&#x36;" d="M 480.00,89.632L 345.504,224.00L 480.00,358.368L 390.368,448.00L 256.00,313.568L 121.568,448.00L 32.00,358.368L 166.368,224.00L 32.00,89.632L 121.568,0.00L 256.00,134.432L 390.368,0.00 		z" />
<glyph unicode="&#x38;" d="M 313.392,223.984l 97.536-97.536c 6.336-6.336, 6.336-16.624,0.00-22.96l-34.416-34.416
	c-6.336-6.336-16.608-6.336-22.96,0.00L 256.00,166.608l-97.552-97.536c-6.336-6.336-16.608-6.336-22.944,0.00l-34.432,34.416
	c-6.336,6.336-6.336,16.608,0.00,22.96l 97.552,97.536L 101.072,321.536c-6.336,6.336-6.336,16.624,0.00,22.96L 135.52,378.912
	c 6.336,6.336, 16.608,6.336, 22.944,0.00L 256.00,281.36l 97.552,97.552c 6.336,6.336, 16.608,6.336, 22.96,0.00l 34.416-34.432
	c 6.336-6.336, 6.336-16.608,0.00-22.96L 313.392,223.984z" />
<glyph unicode="&#x39;" d="M 543.978,379.355 237.392-27.348 C 234.32-30.42 230.341-32.00 226.333-32.00 222.296-32.00 218.258-30.42 215.216-27.348 L 4.623,185.79 C -1.551,191.993 -1.551,202.057 4.564,208.289 l 100.849,102.137 c 2.955,3.013 6.934,4.652 11.147,4.652 l 0.322,0.00 C 121.154,314.99 125.191,313.176 128.059,309.957 L 228.849,199.131 505.242,476.343 c 2.955,2.458 6.495,3.657 10.035,3.657 4.096,0.00 8.163-1.58 11.205-4.71 l 18.461-69.925 c 1.638-8.572 5.149-19.866 -0.995-26.01" horiz-adv-x="547.474255952381" />
<glyph unicode="&#x3a;" d="M 463.968,343.504l-34.144,34.144c-6.304,6.288-16.48,6.288-22.768,0.00L 202.336,172.928
	L 104.96,271.008c-6.288,6.288-16.464,6.288-22.768,0.00l-34.144-34.144c-6.288-6.304-6.288-16.48,0.00-22.768l 142.784-143.744
	c 6.288-6.288, 16.48-6.288, 22.768,0.00L 463.968,320.736C 470.256,327.008, 470.256,337.216, 463.968,343.504z" />
<glyph unicode="&#x3d;" d="M 431.84,182.16c 34.496-25.712, 64.064-49.248, 64.064-49.248l-42.096-73.824l-76.08,33.584
	l-70.496-41.232C 302.464,7.968, 298.096-32.00, 298.096-32.00l-84.192,0.00 l-9.344,83.696l-69.472,41.328l-76.912-33.952l-42.08,73.824
	c0.00,0.00, 29.072,23.424, 63.488,49.056l0.00,84.144 l-63.488,48.96l 42.08,73.84l 75.072-33.408l 74.528,40.432L 213.904,480.00l 84.192,0.00 l 6.096-83.728l 73.504-41.248
	l 76.128,33.888l 42.096-73.84l-64.064-49.136L 431.856,182.16 z M 256.00,288.00c-35.344,0.00-64.00-28.656-64.00-64.00s 28.656-64.00, 64.00-64.00s 64.00,28.656, 64.00,64.00S 291.344,288.00, 256.00,288.00z" />
<glyph unicode="&#x35;" d="M 96.00,288.00L0.00,192.00L 192.00,0.00L 512.00,320.00L 416.00,416.00L 192.00,192.00 z" />
<glyph unicode="&#x37;" d="M 256.00,416.00c 105.872,0.00, 192.00-86.128, 192.00-192.00s-86.128-192.00-192.00-192.00S 64.00,118.128, 64.00,224.00S 150.128,416.00, 256.00,416.00 M 256.00,480.00
			C 114.624,480.00,0.00,365.376,0.00,224.00s 114.624-256.00, 256.00-256.00s 256.00,114.624, 256.00,256.00S 397.376,480.00, 256.00,480.00L 256.00,480.00zM 342.752,182.752L 288.00,237.568L 288.00,352.00 l-64.368,0.00 l0.00-127.872 c0.00-9.632, 4.432-17.936, 11.12-23.872l 62.752-62.752
			L 342.752,182.752z" />
<glyph unicode="&#x2a;" d="M0.00,480.00,M0.00,480.00,m 394.071-408.428 -299.794,0.00 0.00,299.794 119.918,0.00 59.959,89.938 -269.815,0.00 0.00-479.67 479.67,0.00 0.00,179.876 -29.979-29.979 z M 124.257,131.531 c 0.00,0.00 29.979,59.959 119.918,89.938 89.938,29.979 89.938,0.00 89.938,0.00 l 0.00-119.918 179.876,179.876 -179.876,179.876 0.00-89.938 C 289.503,364.92 244.474,341.686 214.195,311.407 154.236,251.448 124.257,131.531 124.257,131.531 z" />
<glyph unicode="&#x3e;" d="M0.00,480.00,M0.00,480.00,M0.00-32.00,m 409.60,512.00 -307.20,0.00 C 46.094,480.00 0.00,433.934 0.00,377.60 L 0.00,70.40 C 0.00,14.094 46.094-32.00 102.40-32.00 l 307.20,0.00 c 56.334,0.00 102.40,46.094 102.40,102.40 l 0.00,307.20 c 0.00,56.334 -46.094,102.40 -102.40,102.40 z M 443.733,94.266 C 443.733,56.747 423.253,36.267 385.734,36.267 L 126.293,36.267 C 88.747,36.267 68.267,56.747 68.267,94.266 l 0.00,259.441 c 0.00,37.547 20.48,58.027 58.027,58.027 l 259.441,0.00 C 423.253,411.733 443.733,391.253 443.733,353.707 l 0.00-259.441" />
<glyph unicode="&#x3f;" d="M0.00,480.00,M0.00,480.00,M0.00-32.00,m 231.997,315.856 -21.272,23.375 c -12.643,13.899 -26.105,27.689 -27.662,28.017 -1.529,0.382 -2.813,0.655 -2.867,0.655 -0.027,0.00 -3.932-0.71 -5.188-1.529 -1.311-0.847 -13.107-12.506 -26.324-25.832 L 129.461,288.99 c -13.216-13.353 -27.17-30.857 -26.051-33.833 1.174-3.004 12.861-16.384 26.051-29.737 L 221.894,131.949 C 235.083,118.569 247.999,106.254 250.621,104.533 c 0.00,0.00 0.00,0.00 2.703,0.00 2.676,0.00 2.676,0.00 2.676,0.00 2.621,1.72 13.954,15.374 25.286,30.392 l 163.267,216.624 c 11.305,14.991 21.463,29.682 22.61,32.631 1.12,2.976 -4.642,20.535 -7.864,34.079 -3.249,13.489 -8.001,25.941 -10.622,27.689 0.00,0.00 0.00,0.00 -2.731,0.00 -2.321,0.00 -2.321,0.00 -2.321,0.00 -2.403-1.338 -15.183-13.326 -28.454-26.597 L 279.074,282.819 c -13.244-13.271 -34.406-12.807 -47.077,1.092 z M 494.933,242.569 443.733,191.341 443.733,90.88 C 443.733,53.333 426.667,36.267 389.12,36.267 L 126.293,36.267 C 88.747,36.267 68.267,56.747 68.267,94.266 l 0.00,259.441 c 0.00,37.547 20.48,58.027 58.027,58.027 l 97.048,0.00 51.20,51.227 c 6.253,6.199 11.414,12.151 15.073,17.039 L 102.40,480.00 C 46.094,480.00 0.00,433.934 0.00,377.60 L 0.00,70.40 C 0.00,14.094 46.094-32.00 102.40-32.00 l 307.20,0.00 c 56.334,0.00 102.40,46.094 102.40,102.40 l 0.00,187.242 c -4.888-3.714 -10.868-8.875 -17.067-15.073" />
<glyph unicode="&#x3c;" d="M 415.389,314.069 95.043,314.101 255.238,35.531 z" />
<glyph unicode="&#xe000;" d="M0.00,480.00,m 376.732-2.893 c -65.379,0.00 -118.563-53.184 -118.563-118.563 l 0.00-84.688 -203.25,0.00 c -18.631,0.00 -33.875-15.244 -33.875-33.875 l 0.00-237.125 c 0.00-18.631 15.244-33.875 33.875-33.875 l 304.876,0.00 c 18.631,0.00 33.875,15.244 33.875,33.875 l 0.00,237.125 c 0.00,18.631 -15.244,33.875 -33.875,33.875 l -33.875,0.00 0.00,84.688 c 0.00,28.015 22.798,50.813 50.813,50.813 28.015,0.00 50.813-22.798 50.813-50.813 l 0.00-118.563 67.75,0.00 0.00,118.563 c 0.00,65.379 -53.184,118.563 -118.563,118.563 z" />
<glyph unicode="&#xe001;" d="M0.00,480.00,M0.00,480.00,m 425.727-206.644 -33.989,0.00 0.00,67.977 C 391.738,416.312 330.762,477.288 255.783,477.288 180.804,477.288 119.828,416.312 119.828,341.333 l 0.00-67.977 -33.989,0.00 c -18.694,0.00 -33.989-15.295 -33.989-33.989 l 0.00-237.921 c 0.00-18.694 15.295-33.989 33.989-33.989 l 339.887,0.00 c 18.694,0.00 33.989,15.295 33.989,33.989 l 0.00,237.921 c 0.00,18.694 -15.295,33.989 -33.989,33.989 z M 187.806,341.333 c 0.00,37.49 30.488,67.977 67.977,67.977 37.49,0.00 67.977-30.488 67.977-67.977 l 0.00-67.977 -135.955,0.00 0.00,67.977 z" />
<glyph unicode="&#xe002;" d="M0.00,480.00,M0.00,480.00,m 316.533-487.412 -256.319,0.00 c -31.413,0.00 -56.96,25.546 -56.96,56.96 l 0.00,256.319 c 0.00,31.413 25.546,56.96 56.96,56.96 l 256.319,0.00 c 31.413,0.00 56.96-25.546 56.96-56.96 l 0.00-256.319 c 0.00-31.413 -25.546-56.96 -56.96-56.96 z M 60.214,305.866 l 0.00-256.319 256.319,0.00 0.00,256.319 -256.319,0.00 z m 370.239-227.839 -28.48,0.00 0.00,56.96 28.48,0.00 0.00,284.799 -284.799,0.00 0.00-28.48 -56.96,0.00 0.00,28.48 c 0.00,31.413 25.546,56.96 56.96,56.96 l 284.799,0.00 c 31.413,0.00 56.96-25.546 56.96-56.96 l 0.00-284.799 c 0.00-31.413 -25.546-56.96 -56.96-56.96 z" />
<glyph unicode="&#xe003;" d="M 460.013,428.771L 50.421,428.771 c-28.16,0.00-51.20-23.04-51.20-51.20l0.00-307.204 c0.00-28.16, 23.04-51.20, 51.20-51.20l 409.592,0.00 c 28.16,0.00, 51.20,23.04, 51.20,51.20L 511.213,377.571 
	C 511.213,405.731, 488.173,428.771, 460.013,428.771z M 116.981,380.896c 10.609,0.00, 19.20-8.36, 19.20-18.684s-8.591-18.684-19.20-18.684
	c-10.613,0.00-19.20,8.36-19.20,18.684S 106.368,380.896, 116.981,380.896z M 46.581,362.211c0.00,10.324, 8.587,18.684, 19.20,18.684
	c 10.609,0.00, 19.20-8.36, 19.20-18.684s-8.591-18.684-19.20-18.684C 55.168,343.527, 46.581,351.888, 46.581,362.211z M 460.525,70.368
	L 49.909,70.368 L 49.909,305.891 l 410.616,0.00 L 460.525,70.368 z M 460.525,346.851L 152.82,346.851 l0.00,30.72 l 307.704,0.00 L 460.525,346.851 z" />
<glyph unicode="&#xe007;" d="M 512.00,224.00 C 512.00,365.376 397.376,480.00 256.00,480.00 114.624,480.00 0.00,365.376 0.00,224.00 0.00,82.624 114.624-32.00 256.00-32.00 397.376-32.00 512.00,82.624 512.00,224.00 z m -384.00,76.00 256.00,0.00 -128.00-208.399 z" />
<glyph unicode="&#xe008;" d="M0.00,480.00,M 256.00,480.00 C 114.615,480.00 0.00,365.385 0.00,224.00 0.00,82.615 114.615-32.00 256.00-32.00 397.385-32.00 512.00,82.615 512.00,224.00 512.00,365.385 397.385,480.00 256.00,480.00 z m 0.00-448.00 C 149.961,32.00 64.00,117.961 64.00,224.00 64.00,330.039 149.961,416.00 256.00,416.00 c 106.039,0.00 192.00-85.961 192.00-192.00 0.00-106.039 -85.961-192.00 -192.00-192.00 zM0.00,480.00,m 385.189-175.147 -258.378,0.024 129.207-209.144 z" />
<glyph unicode="&#xe004;" d="M 2.534,314.301 L 205.545,480.824 L 205.545,395.611 C 247.887,395.611 510.772,393.835 510.772,185.593 C 510.772,73.498 412.032-18.171 284.327-32.824 C 363.787-19.06 423.552,40.457 423.552,111.776 C 423.552,248.014 267.036,249.161 205.545,249.161 L 205.545,149.036 L 2.534,314.301 L 2.534,314.301 Z" />
<glyph unicode="&#xe005;" d="M0.00-31.987,m 107.015,0.00 0.00,3.344 -6.688,0.00 0.00,3.344 -3.344,0.00 0.00,3.344 -3.344,0.00 0.00,6.688 -3.344,0.00 0.00,10.033 -3.344,0.00 0.00,16.721 3.344,0.00 0.00,20.065 3.344,0.00 0.00,20.065 3.344,0.00 0.00,20.065 3.344,0.00 0.00,16.721 3.344,0.00 0.00,20.065 3.344,0.00 0.00,20.065 3.344,0.00 0.00,23.41 -3.344,0.00 0.00,3.344 -3.344,0.00 0.00,3.344 -3.344,0.00 0.00,3.344 -3.344,0.00 0.00,3.344 -3.344,0.00 0.00,3.344 -3.344,0.00 0.00,3.344 -3.344,0.00 0.00,3.344 -3.344,0.00 0.00,3.344 -3.344,0.00 0.00,3.344 -3.344,0.00 0.00,3.344 -3.344,0.00 0.00,3.344 -3.344,0.00 0.00,3.344 -3.344,0.00 0.00,3.344 -3.344,0.00 0.00,3.344 -3.344,0.00 0.00,3.344 -3.344,0.00 0.00,3.344 -3.344,0.00 0.00,3.344 -3.344,0.00 0.00,3.344 -3.344,0.00 0.00,3.344 -3.344,0.00 0.00,3.344 -3.344,0.00 0.00,3.344 -3.344,0.00 0.00,3.344 -3.344,0.00 0.00,3.344 -3.344,0.00 0.00,3.344 -3.344,0.00 0.00,3.344 -3.344,0.00 0.00,3.344 -3.344,0.00 0.00,3.344 -3.344,0.00 0.00,3.344 -3.344,0.00 0.00,3.344 -3.344,0.00 0.00,3.344 -3.344,0.00 0.00,3.344 -3.344,0.00 0.00,6.688 -3.344,0.00 0.00,30.098 3.344,0.00 0.00,6.688 3.344,0.00 0.00,3.344 3.344,0.00 0.00,3.344 6.688,0.00 0.00,3.344 6.688,0.00 0.00,3.344 20.065,0.00 0.00,3.344 23.41,0.00 0.00,3.344 23.41,0.00 0.00,3.344 23.41,0.00 0.00,3.344 23.41,0.00 0.00,3.344 23.41,0.00 0.00,3.344 10.033,0.00 0.00,3.344 3.344,0.00 0.00,6.688 3.344,0.00 0.00,6.688 3.344,0.00 0.00,6.688 3.344,0.00 0.00,6.688 3.344,0.00 0.00,6.688 3.344,0.00 0.00,6.688 3.344,0.00 0.00,6.688 3.344,0.00 0.00,6.688 3.344,0.00 0.00,6.688 3.344,0.00 0.00,6.688 3.344,0.00 0.00,6.688 3.344,0.00 0.00,6.688 3.344,0.00 0.00,6.688 3.344,0.00 0.00,6.688 3.344,0.00 0.00,6.688 3.344,0.00 0.00,6.688 3.344,0.00 0.00,6.688 3.344,0.00 0.00,6.688 3.344,0.00 0.00,6.688 3.344,0.00 0.00,6.688 3.344,0.00 0.00,3.344 3.344,0.00 0.00,3.344 6.688,0.00 0.00,3.344 33.442,0.00 0.00-3.344 6.688,0.00 0.00-3.344 3.344,0.00 0.00-3.344 3.344,0.00 0.00-6.688 3.344,0.00 0.00-6.688 3.344,0.00 0.00-6.688 3.344,0.00 0.00-6.688 3.344,0.00 0.00-6.688 3.344,0.00 0.00-6.688 3.344,0.00 0.00-6.688 3.344,0.00 0.00-6.688 3.344,0.00 0.00-6.688 3.344,0.00 0.00-6.688 3.344,0.00 0.00-6.688 3.344,0.00 0.00-6.688 3.344,0.00 0.00-6.688 3.344,0.00 0.00-6.688 3.344,0.00 0.00-6.688 3.344,0.00 0.00-6.688 3.344,0.00 0.00-6.688 3.344,0.00 0.00-6.688 3.344,0.00 0.00-6.688 3.344,0.00 0.00-6.688 3.344,0.00 0.00-3.344 10.033,0.00 0.00-3.344 23.41,0.00 0.00-3.344 23.41,0.00 0.00-3.344 23.41,0.00 0.00-3.344 23.41,0.00 0.00-3.344 23.41,0.00 0.00-3.344 20.065,0.00 0.00-3.344 6.688,0.00 0.00-3.344 6.688,0.00 0.00-3.344 3.344,0.00 0.00-3.344 3.344,0.00 0.00-6.688 3.344,0.00 0.00-30.098 -3.344,0.00 0.00-6.688 -3.344,0.00 0.00-3.344 -3.344,0.00 0.00-3.344 -3.344,0.00 0.00-3.344 -3.344,0.00 0.00-3.344 -3.344,0.00 0.00-3.344 -3.344,0.00 0.00-3.344 -3.344,0.00 0.00-3.344 -3.344,0.00 0.00-3.344 -3.344,0.00 0.00-3.344 -3.344,0.00 0.00-3.344 -3.344,0.00 0.00-3.344 -3.344,0.00 0.00-3.344 -3.344,0.00 0.00-3.344 -3.344,0.00 0.00-3.344 -3.344,0.00 0.00-3.344 -3.344,0.00 0.00-3.344 -3.344,0.00 0.00-3.344 -3.344,0.00 0.00-3.344 -3.344,0.00 0.00-3.344 -3.344,0.00 0.00-3.344 -3.344,0.00 0.00-3.344 -3.344,0.00 0.00-3.344 -3.344,0.00 0.00-3.344 -3.344,0.00 0.00-3.344 -3.344,0.00 0.00-3.344 -3.344,0.00 0.00-3.344 -3.344,0.00 0.00-3.344 -3.344,0.00 0.00-3.344 -3.344,0.00 0.00-3.344 -3.344,0.00 0.00-3.344 -3.344,0.00 0.00-3.344 -3.344,0.00 0.00-23.41 3.344,0.00 0.00-20.065 3.344,0.00 0.00-20.065 3.344,0.00 0.00-16.721 3.344,0.00 0.00-20.065 3.344,0.00 0.00-20.065 3.344,0.00 0.00-20.065 3.344,0.00 0.00-16.721 -3.344,0.00 0.00-10.033 -3.344,0.00 0.00-6.688 -3.344,0.00 0.00-3.344 -3.344,0.00 0.00-3.344 -6.688,0.00 0.00-3.344 -30.098,0.00 0.00,3.344 -10.033,0.00 0.00,3.344 -3.344,0.00 0.00,3.344 -6.688,0.00 0.00,3.344 -6.688,0.00 0.00,3.344 -6.688,0.00 0.00,3.344 -6.688,0.00 0.00,3.344 -6.688,0.00 0.00,3.344 -6.688,0.00 0.00,3.344 -6.688,0.00 0.00,3.344 -6.688,0.00 0.00,3.344 -6.688,0.00 0.00,3.344 -6.688,0.00 0.00,3.344 -3.344,0.00 0.00,3.344 -6.688,0.00 0.00,3.344 -6.688,0.00 0.00,3.344 -6.688,0.00 0.00,3.344 -6.688,0.00 0.00,3.344 -6.688,0.00 0.00,3.344 -6.688,0.00 0.00,3.344 -13.377,0.00 0.00-3.344 -6.688,0.00 0.00-3.344 -6.688,0.00 0.00-3.344 -6.688,0.00 0.00-3.344 -6.688,0.00 0.00-3.344 -6.688,0.00 0.00-3.344 -6.688,0.00 0.00-3.344 -3.344,0.00 0.00-3.344 -6.688,0.00 0.00-3.344 -6.688,0.00 0.00-3.344 -6.688,0.00 0.00-3.344 -6.688,0.00 0.00-3.344 -6.688,0.00 0.00-3.344 -6.688,0.00 0.00-3.344 -6.688,0.00 0.00-3.344 -6.688,0.00 0.00-3.344 -6.688,0.00 0.00-3.344 -6.688,0.00 0.00-3.344 -3.344,0.00 0.00-3.344 -10.033,0.00 0.00-3.344" horiz-adv-x="535.0750929729642" />
<glyph unicode="&#xe006;" d="M0.00,480.00,M0.00,480.00,M0.00-31.987,m 533.363,319.012 c -3.986,12.28 -14.447,21.055 -27.209,22.955 l -143.962,20.921 -64.37,130.425 c -5.725,11.665 -17.31,18.861 -30.258,18.861 -12.976,0.00 -24.533-7.197 -30.232-18.835 L 172.91,330.875 28.921,309.953 C 16.133,308.08 5.699,299.278 1.685,286.945 -2.354,274.638 0.936,261.395 10.193,252.406 L 114.372,150.849 89.786,7.475 C 87.619-5.286 92.729-17.968 103.189-25.592 109.022-29.793 115.871-31.987 123.041-31.987 c 5.485,0.00 10.916,1.338 15.704,3.879 L 267.538,39.553 396.303-28.107 C 401.092-30.649 406.523-31.987 412.008-31.987 c 7.197,0.00 14.046,2.221 19.798,6.448 10.541,7.598 15.678,20.226 13.457,32.961 l -24.613,143.40 104.179,101.53 c 9.257,9.07 12.548,22.313 8.561,34.646 z M 366.767,168.346 390.123,31.741 267.538,96.217 144.872,31.741 168.281,168.346 69.051,265.06 206.218,285.019 267.538,409.29 328.884,285.019 466.024,265.06 366.767,168.346" horiz-adv-x="535.0750929729642" />
<glyph class="hidden" unicode="&#xf000;" d="M0,480L 512 -32L0 -32 z" horiz-adv-x="0" />
</font>
</defs>
</svg>
